<?xml version="1.0" encoding="UTF-8" standalone="no"?>
<svg
   xmlns:dc="http://purl.org/dc/elements/1.1/"
   xmlns:cc="http://creativecommons.org/ns#"
   xmlns:rdf="http://www.w3.org/1999/02/22-rdf-syntax-ns#"
   xmlns:svg="http://www.w3.org/2000/svg"
   xmlns="http://www.w3.org/2000/svg"
   xmlns:sodipodi="http://sodipodi.sourceforge.net/DTD/sodipodi-0.dtd"
   xmlns:inkscape="http://www.inkscape.org/namespaces/inkscape"
   inkscape:version="1.0beta1 (76ce730, 2019-10-19)"
   sodipodi:docname="IN12-Case.svg"
   id="svg1053"
   style="clip-rule:evenodd;fill-rule:evenodd"
   xml:space="preserve"
   version="1.1"
   viewBox="0 0 300.00001 200"
   height="200mm"
   width="300mm"><metadata
   id="metadata1059"><rdf:RDF><cc:Work
       rdf:about=""><dc:format>image/svg+xml</dc:format><dc:type
         rdf:resource="http://purl.org/dc/dcmitype/StillImage" /><dc:title></dc:title></cc:Work></rdf:RDF></metadata><defs
   id="defs1057" /><sodipodi:namedview
   inkscape:current-layer="boxK"
   inkscape:window-maximized="0"
   inkscape:window-y="23"
   inkscape:window-x="0"
   inkscape:cy="439.64884"
   inkscape:cx="677.5561"
   inkscape:zoom="0.58515724"
   showguides="false"
   inkscape:document-units="mm"
   units="mm"
   showgrid="false"
   id="namedview1055"
   inkscape:window-height="855"
   inkscape:window-width="1440"
   inkscape:pageshadow="2"
   inkscape:pageopacity="0"
   guidetolerance="10"
   gridtolerance="10"
   objecttolerance="10"
   borderopacity="1"
   inkscape:document-rotation="0"
   bordercolor="#666666"
   pagecolor="#ffffff" />
    <g
   transform="matrix(0,-0.35235773,0.35235773,0,2.6455018,210.41747)"
   id="boxK">
        <g
   transform="translate(195.85612,617.18919)"
   id="Top">
            <path
   inkscape:connector-curvature="0"
   id="path971"
   style="fill:none;fill-rule:nonzero;stroke:#ff0000;stroke-width:1px"
   d="M 0,0 H 13.399 V -8.504 H 40.48 V 0 H 67.277 V -8.504 H 94.358 V 0 h 26.798 v -8.504 h 27.081 V 0 h 26.797 v -8.504 h 27.081 V 0 h 26.798 v -8.504 h 27.081 V 0 h 26.797 v -8.504 h 27.081 V 0 h 26.798 v -8.504 h 27.081 V 0 h 13.399 v 13.225 h 8.504 V 39.96 h -8.504 v 26.45 h 8.504 v 26.735 h -8.504 v 26.45 h 8.504 v 26.735 h -8.504 v 26.451 h 8.504 v 26.734 h -8.504 v 13.225 h -13.399 v 8.504 H 336.67 v -8.504 h -26.798 v 8.504 h -27.081 v -8.504 h -26.797 v 8.504 h -27.081 v -8.504 h -26.798 v 8.504 h -27.081 v -8.504 h -26.797 v 8.504 H 121.156 V 212.74 H 94.358 v 8.504 H 67.277 V 212.74 H 40.48 v 8.504 H 13.399 V 212.74 H 0 V 199.515 H -8.504 V 172.781 H 0 V 146.33 H -8.504 V 119.595 H 0 V 93.145 H -8.504 V 66.41 H 0 V 39.96 H -8.504 V 13.225 H 0 V 0" />
        </g>
        <g
   transform="translate(-72.017882,413.94824)"
   id="Front">
            <g
   id="g976"
   transform="matrix(0,1.24842,-1.24842,0,626.208,-42.4149)">
                <circle
   id="circle974"
   style="fill:none;stroke:#ff0000;stroke-width:0.8px;stroke-linecap:round;stroke-linejoin:round;stroke-miterlimit:1.5"
   r="5.6199999"
   cy="136.183"
   cx="86.384003" />
            </g>
            <g
   id="g980"
   transform="matrix(0,1.24842,-1.24842,0,626.208,-2.61648)">
                <circle
   id="circle978"
   style="fill:none;stroke:#ff0000;stroke-width:0.8px;stroke-linecap:round;stroke-linejoin:round;stroke-miterlimit:1.5"
   r="5.6199999"
   cy="136.183"
   cx="86.384003" />
            </g>
            <g
   transform="translate(268.016,-697.748)"
   id="boxK-longside2">
                <path
   inkscape:connector-curvature="0"
   id="path982"
   style="fill:none;fill-rule:nonzero;stroke:#ff0000;stroke-width:1px"
   d="m 0,689.244 v -8.504 h 13.54 v 8.504 h 26.798 v -8.504 h 27.081 v 8.504 h 26.798 v -8.504 h 27.081 v 8.504 h 26.797 v -8.504 h 27.081 v 8.504 h 26.798 v -8.504 h 27.081 v 8.504 h 26.797 v -8.504 h 27.081 v 8.504 h 26.798 v -8.504 h 27.081 v 8.504 h 26.797 v -8.504 h 13.541 v 8.504 h 8.504 v 11.773 h -8.504 v 23.262 h 8.504 v 23.545 h -8.504 v 23.262 h 8.504 v 23.545 h -8.504 v 23.262 h 8.504 v 23.545 H 377.15 V 864.7 h 8.504 v 11.772 h -8.504 v 8.504 h -13.541 v -8.504 h -26.797 v 8.504 h -27.081 v -8.504 h -26.798 v 8.504 h -27.081 v -8.504 h -26.797 v 8.504 h -27.081 v -8.504 h -26.798 v 8.504 h -27.081 v -8.504 h -26.797 v 8.504 H 94.217 v -8.504 H 67.419 v 8.504 H 40.338 v -8.504 H 13.54 v 8.504 H 0 v -8.504 H -8.504 V 864.7 H 0 V 841.438 H -8.504 V 817.893 H 0 V 794.631 H -8.504 V 771.086 H 0 V 747.824 H -8.504 V 724.279 H 0 V 701.017 H -8.504 V 689.244 H 0" />
            </g>
            <g
   id="g987"
   transform="rotate(90,557.978,97.416)">
                <path
   inkscape:connector-curvature="0"
   id="path985"
   style="fill:none;stroke:#ff0000;stroke-width:1px;stroke-linejoin:round;stroke-miterlimit:2"
   d="m 516.585,130.242 c -2.175,0.018 -4.238,1.222 -5.412,3.077 0,0 -4.584,8.004 -6.014,14.909 -1.736,8.379 -1.272,17.318 1.773,25.593 1.253,3.405 2.787,6.169 4.29,8.8 0,0 2.208,2.875 5.251,2.948 19.668,0.16 39.338,0.16 59.006,0 2.121,-0.052 4.145,-1.205 5.276,-2.99 l 1.622,-2.839 c 7.482,-15.263 7.326,-25.025 2.643,-37.749 -2.148,-5.838 -4.564,-11.623 -9.542,-11.748 -19.63,-0.164 -39.262,-0.001 -58.893,-0.001 z" />
            </g>
            <g
   id="g991"
   transform="rotate(90,557.978,97.416)">
                <path
   inkscape:connector-curvature="0"
   id="path989"
   style="fill:none;stroke:#ff0000;stroke-width:1px;stroke-linejoin:round;stroke-miterlimit:2"
   d="m 516.585,61.644 c -2.174,0.018 -4.238,1.221 -5.412,3.077 0,0 -4.584,8.003 -6.014,14.908 -1.736,8.38 -1.272,17.318 1.773,25.594 1.253,3.405 2.787,6.168 4.29,8.8 0,0 2.208,2.874 5.251,2.948 19.668,0.159 39.338,0.16 59.006,0 2.121,-0.052 4.145,-1.206 5.276,-2.99 l 1.622,-2.839 c 7.482,-15.264 7.326,-25.026 2.643,-37.749 -2.148,-5.839 -4.564,-11.623 -9.542,-11.748 -19.63,-0.165 -39.262,-0.001 -58.893,-0.001 z" />
            </g>
            <g
   id="g995"
   transform="rotate(90,557.978,97.416)">
                <path
   inkscape:connector-curvature="0"
   id="path993"
   style="fill:none;stroke:#ff0000;stroke-width:1px;stroke-linejoin:round;stroke-miterlimit:2"
   d="m 516.585,213.014 c -2.175,0.018 -4.238,1.221 -5.412,3.077 0,0 -4.584,8.004 -6.014,14.909 -1.736,8.379 -1.272,17.317 1.773,25.593 1.253,3.405 2.787,6.169 4.29,8.8 0,0 2.208,2.875 5.251,2.948 19.668,0.16 39.338,0.16 59.006,0 2.121,-0.052 4.145,-1.206 5.276,-2.99 l 1.622,-2.839 c 7.482,-15.264 7.326,-25.026 2.643,-37.749 -2.148,-5.839 -4.564,-11.623 -9.542,-11.748 -19.63,-0.165 -39.262,-10e-4 -58.893,-10e-4 z" />
            </g>
            <g
   id="g999"
   transform="rotate(90,557.978,97.416)">
                <path
   inkscape:connector-curvature="0"
   id="path997"
   style="fill:none;stroke:#ff0000;stroke-width:1px;stroke-linejoin:round;stroke-miterlimit:2"
   d="m 516.585,281.329 c -2.175,0.018 -4.238,1.221 -5.412,3.077 0,0 -4.584,8.003 -6.014,14.909 -1.736,8.379 -1.272,17.317 1.773,25.593 1.253,3.405 2.787,6.169 4.29,8.8 0,0 2.208,2.874 5.251,2.948 19.668,0.157 39.338,0.157 59.006,0 2.122,-0.052 4.146,-1.206 5.275,-2.99 l 1.623,-2.839 c 7.482,-15.264 7.326,-25.026 2.643,-37.749 -2.148,-5.839 -4.564,-11.624 -9.542,-11.748 -19.63,-0.165 -39.262,-10e-4 -58.893,-10e-4" />
            </g>
        </g>
        <g
   transform="rotate(-90,528.05151,118.60949)"
   id="Back">
            <g
   transform="matrix(-1,0,0,1,645.165,-246.756)"
   id="boxK-longside1">
                <path
   inkscape:connector-curvature="0"
   id="path1002"
   style="fill:none;fill-rule:nonzero;stroke:#ff0000;stroke-width:1px"
   d="m 0,238.252 v -8.504 h 13.54 v 8.504 h 26.798 v -8.504 h 27.081 v 8.504 h 26.798 v -8.504 h 27.081 v 8.504 h 26.797 v -8.504 h 27.081 v 8.504 h 26.798 v -8.504 h 27.081 v 8.504 h 26.797 v -8.504 h 27.081 v 8.504 h 26.798 v -8.504 h 27.081 v 8.504 h 26.797 v -8.504 h 13.541 v 8.504 h 8.504 v 11.773 h -8.504 v 23.261 h 8.504 v 23.546 h -8.504 v 23.262 h 8.504 v 23.545 h -8.504 v 23.262 h 8.504 v 23.545 h -8.504 v 23.262 h 8.504 v 11.772 h -8.504 v 8.504 h -13.541 v -8.504 h -26.797 v 8.504 h -27.081 v -8.504 h -26.798 v 8.504 h -27.081 v -8.504 h -26.797 v 8.504 h -27.081 v -8.504 h -26.798 v 8.504 h -27.081 v -8.504 h -26.797 v 8.504 H 94.217 V 425.48 H 67.419 v 8.504 H 40.338 V 425.48 H 13.54 v 8.504 H 0 V 425.48 H -8.504 V 413.708 H 0 V 390.446 H -8.504 V 366.901 H 0 V 343.639 H -8.504 V 320.094 H 0 V 296.832 H -8.504 V 273.286 H 0 V 250.025 H -8.504 V 238.252 H 0" />
            </g>
            <g
   id="g1007"
   transform="matrix(0,0.895611,0.895611,0,325.704,18.4255)">
                <circle
   id="circle1005"
   style="fill:none;stroke:#ff0000;stroke-width:1.12px;stroke-linecap:round;stroke-linejoin:round;stroke-miterlimit:1.5"
   r="4.4310002"
   cy="62.173"
   cx="36.643002" />
            </g>
            <g
   id="g1011"
   transform="matrix(0,0.895611,0.895611,0,351.804,117.694)">
                <circle
   id="circle1009"
   style="fill:none;stroke:#ff0000;stroke-width:1.12px;stroke-linecap:round;stroke-linejoin:round;stroke-miterlimit:1.5"
   r="4.4310002"
   cy="62.173"
   cx="36.643002" />
            </g>
            <g
   id="g1015"
   transform="matrix(0,0.895611,0.895611,0,450.804,117.694)">
                <circle
   id="circle1013"
   style="fill:none;stroke:#ff0000;stroke-width:1.12px;stroke-linecap:round;stroke-linejoin:round;stroke-miterlimit:1.5"
   r="4.4310002"
   cy="62.173"
   cx="36.643002" />
            </g>
            <g
   id="g1019"
   transform="matrix(0,0.750824,0.750824,0,327.416,-4.33316)">
                <circle
   id="circle1017"
   style="fill:none;stroke:#ff0000;stroke-width:1.33px;stroke-linecap:round;stroke-linejoin:round;stroke-miterlimit:1.5"
   r="16.989"
   cy="28.327999"
   cx="54.935001" />
            </g>
            <g
   id="g1023"
   transform="matrix(0,0.580124,0.870186,0,335.222,35.4961)">
                <path
   inkscape:connector-curvature="0"
   id="path1021"
   style="fill:none;stroke:#ff0000;stroke-width:1.35px;stroke-linecap:round;stroke-linejoin:round;stroke-miterlimit:1.5"
   d="m 34.204,94.726 c 0,-1.258 -1.533,-2.28 -3.42,-2.28 H 3.42 C 1.533,92.446 0,93.468 0,94.726 v 29.644 c 0,1.258 1.533,2.28 3.42,2.28 h 27.364 c 1.887,0 3.42,-1.022 3.42,-2.28 z" />
            </g>
        </g>
        <g
   transform="rotate(-90,409.42356,237.23844)"
   id="Bottom">
            <g
   transform="translate(268.016,-459.496)"
   id="boxK-base">
                <path
   inkscape:connector-curvature="0"
   id="path1026"
   style="fill:none;fill-rule:nonzero;stroke:#ff0000;stroke-width:1px"
   d="m 0,450.992 h 13.399 v -8.504 H 40.48 v 8.504 h 26.797 v -8.504 h 27.081 v 8.504 h 26.798 v -8.504 h 27.081 v 8.504 h 26.797 v -8.504 h 27.081 v 8.504 h 26.798 v -8.504 h 27.081 v 8.504 h 26.797 v -8.504 h 27.081 v 8.504 h 26.798 v -8.504 h 27.081 v 8.504 h 13.399 v 13.226 h 8.504 v 26.734 h -8.504 v 26.451 h 8.504 v 26.734 h -8.504 v 26.451 h 8.504 v 26.734 h -8.504 v 26.451 h 8.504 v 26.734 h -8.504 v 13.225 h -13.399 v 8.504 H 336.67 v -8.504 h -26.798 v 8.504 h -27.081 v -8.504 h -26.797 v 8.504 h -27.081 v -8.504 h -26.798 v 8.504 h -27.081 v -8.504 h -26.797 v 8.504 h -27.081 v -8.504 H 94.358 v 8.504 H 67.277 v -8.504 H 40.48 v 8.504 H 13.399 v -8.504 H 0 V 650.507 H -8.504 V 623.773 H 0 V 597.322 H -8.504 V 570.588 H 0 V 544.137 H -8.504 V 517.403 H 0 V 490.952 H -8.504 V 464.218 H 0 v -13.226" />
            </g>
            <g
   id="g1031"
   transform="matrix(0,0.3306,-0.3306,0,589.239,-30.851)">
                <circle
   id="circle1029"
   style="fill:none;stroke:#ff0000;stroke-width:3.02px;stroke-linecap:round;stroke-linejoin:round;stroke-miterlimit:1.5"
   r="12.004"
   cy="173.802"
   cx="118.374" />
            </g>
            <g
   id="g1035"
   transform="matrix(0,0.3306,-0.3306,0,644.514,54.1884)">
                <circle
   id="circle1033"
   style="fill:none;stroke:#ff0000;stroke-width:3.02px;stroke-linecap:round;stroke-linejoin:round;stroke-miterlimit:1.5"
   r="12.004"
   cy="173.802"
   cx="118.374" />
            </g>
            <g
   id="g1039"
   transform="matrix(0,0.3306,-0.3306,0,383.727,-30.851)">
                <circle
   id="circle1037"
   style="fill:none;stroke:#ff0000;stroke-width:3.02px;stroke-linecap:round;stroke-linejoin:round;stroke-miterlimit:1.5"
   r="12.004"
   cy="173.802"
   cx="118.374" />
            </g>
            <g
   id="g1043"
   transform="matrix(0,0.3306,-0.3306,0,383.727,14.5033)">
                <circle
   id="circle1041"
   style="fill:none;stroke:#ff0000;stroke-width:3.02px;stroke-linecap:round;stroke-linejoin:round;stroke-miterlimit:1.5"
   r="12.004"
   cy="173.802"
   cx="118.374" />
            </g>
        </g>
        
        
    </g>
</svg>
