<?xml version="1.0" encoding="UTF-8" standalone="no"?>
<svg
   xmlns:dc="http://purl.org/dc/elements/1.1/"
   xmlns:cc="http://creativecommons.org/ns#"
   xmlns:rdf="http://www.w3.org/1999/02/22-rdf-syntax-ns#"
   xmlns:svg="http://www.w3.org/2000/svg"
   xmlns="http://www.w3.org/2000/svg"
   xmlns:sodipodi="http://sodipodi.sourceforge.net/DTD/sodipodi-0.dtd"
   xmlns:inkscape="http://www.inkscape.org/namespaces/inkscape"
   inkscape:version="1.0beta1 (76ce730, 2019-10-19)"
   sodipodi:docname="IN14-Case.svg"
   id="svg1078"
   style="clip-rule:evenodd;fill-rule:evenodd;stroke-linecap:round;stroke-linejoin:round;stroke-miterlimit:1.5"
   xml:space="preserve"
   version="1.1"
   viewBox="0 0 1133.8583 755.9055"
   height="200mm"
   width="300mm"><metadata
   id="metadata1084"><rdf:RDF><cc:Work
       rdf:about=""><dc:format>image/svg+xml</dc:format><dc:type
         rdf:resource="http://purl.org/dc/dcmitype/StillImage" /><dc:title></dc:title></cc:Work></rdf:RDF></metadata><defs
   id="defs1082" /><sodipodi:namedview
   inkscape:current-layer="svg1078"
   inkscape:window-maximized="0"
   inkscape:window-y="23"
   inkscape:window-x="0"
   inkscape:cy="780.828"
   inkscape:cx="249.11453"
   inkscape:zoom="1.6238135"
   units="mm"
   inkscape:document-units="mm"
   showgrid="false"
   id="namedview1080"
   inkscape:window-height="855"
   inkscape:window-width="1440"
   inkscape:pageshadow="2"
   inkscape:pageopacity="0"
   guidetolerance="10"
   gridtolerance="10"
   objecttolerance="10"
   borderopacity="1"
   inkscape:document-rotation="0"
   bordercolor="#666666"
   pagecolor="#ffffff" />
    <g
   transform="matrix(1.3328137,0,0,1.3328137,93.883397,-115.4218)"
   id="box7937">
        <g
   transform="translate(7.08661,7.08661)"
   id="Bottom">
            <g
   id="g1010"
   transform="matrix(0.3306,0,0,0.3306,-84.2841,151.171)">
                <circle
   id="circle1008"
   style="fill:none;stroke:#ff0000;stroke-width:3.02px"
   r="12.004"
   cy="173.802"
   cx="118.374" />
            </g>
            <g
   id="g1014"
   transform="matrix(0.3306,0,0,0.3306,0.755309,95.8953)">
                <circle
   id="circle1012"
   style="fill:none;stroke:#ff0000;stroke-width:3.02px"
   r="12.004"
   cy="173.802"
   cx="118.374" />
            </g>
            <g
   id="g1018"
   transform="matrix(0.3306,0,0,0.3306,-84.2841,356.683)">
                <circle
   id="circle1016"
   style="fill:none;stroke:#ff0000;stroke-width:3.02px"
   r="12.004"
   cy="173.802"
   cx="118.374" />
            </g>
            <g
   id="g1022"
   transform="matrix(0.3306,0,0,0.3306,25.4955,301.421)">
                <circle
   id="circle1020"
   style="fill:none;stroke:#ff0000;stroke-width:3.02px"
   r="12.004"
   cy="173.802"
   cx="118.374" />
            </g>
            <g
   id="g1026"
   transform="matrix(0.3306,0,0,0.3306,25.4955,150.207)">
                <circle
   id="circle1024"
   style="fill:none;stroke:#ff0000;stroke-width:3.02px"
   r="12.004"
   cy="173.802"
   cx="118.374" />
            </g>
            <g
   id="g1030"
   transform="matrix(0.3306,0,0,0.3306,-38.9297,356.683)">
                <circle
   id="circle1028"
   style="fill:none;stroke:#ff0000;stroke-width:3.02px"
   r="12.004"
   cy="173.802"
   cx="118.374" />
            </g>
            <g
   transform="rotate(90,286.29925,374.45675)"
   id="box8366-longside2">
                <path
   inkscape:connector-curvature="0"
   id="path1032"
   style="fill:none;fill-rule:nonzero;stroke:#ff0000;stroke-width:0.28px;stroke-linecap:butt;stroke-linejoin:miter;stroke-miterlimit:4"
   d="m -8.504,542.268 v -8.504 h 22.485 v 8.504 h 27.962 v -3.969 l -0.284,-0.283 0.284,-0.284 v -3.968 h 27.961 v 8.504 h 27.962 v -3.969 l -0.283,-0.283 0.283,-0.284 v -3.968 h 27.962 v 8.504 h 27.962 v -3.969 l -0.284,-0.283 0.284,-0.284 v -3.968 h 27.961 v 8.504 h 27.962 v -3.969 l -0.283,-0.283 0.283,-0.284 v -3.968 h 27.962 v 8.504 h 27.962 v -3.969 l -0.284,-0.283 0.284,-0.284 v -3.968 h 27.961 v 8.504 h 27.962 v -3.969 l -0.283,-0.283 0.283,-0.284 v -3.968 h 27.962 v 8.504 h 27.962 v -3.969 l -0.284,-0.283 0.284,-0.284 v -3.968 h 22.484 v 20.214 H 396 l -0.283,0.284 -0.284,-0.284 h -3.968 V 577.4 h 8.503 v 23.421 H 396 l -0.283,0.283 -0.284,-0.283 h -3.968 v 23.421 h 8.503 v 23.421 H 396 l -0.283,0.284 -0.284,-0.284 h -3.968 v 23.422 h 8.503 v 23.421 H 396 l -0.283,0.283 -0.284,-0.283 h -3.968 v 23.421 h 8.503 v 20.215 h -8.503 -13.981 v -3.969 l -0.284,-0.283 0.284,-0.284 v -3.968 h -27.962 v 8.504 H 335.541 321.56 v -3.969 l -0.283,-0.283 0.283,-0.284 v -3.968 h -27.962 v 8.504 h -13.98 -13.981 v -3.969 l -0.284,-0.283 0.284,-0.284 v -3.968 h -27.962 v 8.504 h -13.981 -13.981 v -3.969 l -0.283,-0.283 0.283,-0.284 v -3.968 h -27.962 v 8.504 h -13.98 -13.981 v -3.969 l -0.284,-0.283 0.284,-0.284 v -3.968 h -27.962 v 8.504 H 111.847 97.866 v -3.969 l -0.283,-0.283 0.283,-0.284 v -3.968 H 69.904 v 8.504 H 55.924 41.943 v -3.969 l -0.284,-0.283 0.284,-0.284 v -3.968 H 13.981 v 8.504 H 0 -8.504 v -8.504 -11.711 H 0 v -23.421 h -3.969 l -0.283,0.283 -0.283,-0.283 h -3.969 v -11.711 -11.71 H 0 v -23.422 h -3.969 l -0.283,0.284 -0.283,-0.284 h -3.969 v -11.71 -11.711 H 0 v -23.421 h -3.969 l -0.283,0.283 -0.283,-0.283 H -8.504 V 589.11 577.4 H 0 v -23.422 h -3.969 l -0.283,0.284 -0.283,-0.284 h -3.969 v -11.71" />
            </g>
        </g>
        <g
   transform="translate(204.378,7.08661)"
   id="Back">
            <g
   id="g1038"
   transform="matrix(0.750824,0,0,-0.750824,-57.6245,412.994)">
                <circle
   id="circle1036"
   style="fill:none;stroke:#ff0000;stroke-width:1.33px"
   r="16.989"
   cy="28.327999"
   cx="54.935001" />
            </g>
            <g
   id="g1042"
   transform="matrix(0.580124,0,0,-0.870186,-17.7953,405.188)">
                <path
   inkscape:connector-curvature="0"
   id="path1040"
   style="fill:none;stroke:#ff0000;stroke-width:1.35px"
   d="m 34.204,94.726 c 0,-1.258 -1.533,-2.28 -3.42,-2.28 H 3.42 C 1.533,92.446 0,93.468 0,94.726 v 29.644 c 0,1.258 1.533,2.28 3.42,2.28 h 27.364 c 1.887,0 3.42,-1.022 3.42,-2.28 z" />
            </g>
            <g
   transform="rotate(90,183.40175,271.55925)"
   id="box8366-base">
                <path
   inkscape:connector-curvature="0"
   id="path1044"
   style="fill:none;fill-rule:nonzero;stroke:#ff0000;stroke-width:0.28px;stroke-linecap:butt;stroke-linejoin:miter;stroke-miterlimit:4"
   d="m 0,377.575 h 13.981 v -3.969 l -0.284,-0.283 0.284,-0.284 v -3.968 h 27.962 v 8.504 h 27.961 v -3.969 l -0.283,-0.283 0.283,-0.284 v -3.968 h 27.962 v 8.504 h 27.962 v -3.969 l -0.284,-0.283 0.284,-0.284 v -3.968 h 27.962 v 8.504 h 27.961 v -3.969 l -0.283,-0.283 0.283,-0.284 v -3.968 h 27.962 v 8.504 h 27.962 v -3.969 l -0.284,-0.283 0.284,-0.284 v -3.968 h 27.962 v 8.504 h 27.961 v -3.969 l -0.283,-0.283 0.283,-0.284 v -3.968 h 27.962 v 8.504 h 27.962 v -3.969 l -0.284,-0.283 0.284,-0.284 v -3.968 h 27.962 v 8.504 h 13.981 v 11.598 h 8.503 V 412.37 H 396 l -0.283,0.284 -0.284,-0.284 h -3.968 v 23.197 h 8.503 v 23.197 H 396 l -0.283,0.283 -0.284,-0.283 h -3.968 v 23.197 h 8.503 v 23.196 H 396 l -0.283,0.284 -0.284,-0.284 h -3.968 v 11.599 h -13.981 v 8.504 h -27.962 v -3.969 l -0.284,-0.283 0.284,-0.284 v -3.968 H 335.541 321.56 v 8.504 h -27.962 v -3.969 l -0.283,-0.283 0.283,-0.284 v -3.968 h -13.98 -13.981 v 8.504 h -27.962 v -3.969 l -0.284,-0.283 0.284,-0.284 v -3.968 h -13.981 -13.981 v 8.504 h -27.962 v -3.969 l -0.283,-0.283 0.283,-0.284 v -3.968 h -13.98 -13.981 v 8.504 h -27.962 v -3.969 l -0.284,-0.283 0.284,-0.284 v -3.968 H 111.847 97.866 v 8.504 H 69.904 v -3.969 l -0.283,-0.283 0.283,-0.284 v -3.968 H 55.924 41.943 v 8.504 H 13.981 v -3.969 l -0.284,-0.283 0.284,-0.284 v -3.968 H 0 v -11.599 h -3.969 l -0.283,0.284 -0.283,-0.284 H -8.504 V 481.961 H 0 v -11.599 -11.598 h -3.969 l -0.283,0.283 -0.283,-0.283 H -8.504 V 435.567 H 0 V 423.969 412.37 h -3.969 l -0.283,0.284 -0.283,-0.284 H -8.504 V 389.173 H 0 v -11.598" />
            </g>
        </g>
        <g
   transform="translate(367.654,7.08661)"
   id="Top">
            <g
   id="g1050"
   transform="matrix(0.863067,0,0,0.863067,-49.3626,93.8277)">
                <circle
   id="circle1048"
   style="fill:none;stroke:#ff0000;stroke-width:1.16px"
   r="32.022999"
   cy="93.374001"
   cx="87.411003" />
            </g>
            <g
   id="g1054"
   transform="matrix(0.863067,0,0,0.863067,-49.3626,162.228)">
                <circle
   id="circle1052"
   style="fill:none;stroke:#ff0000;stroke-width:1.16px"
   r="32.022999"
   cy="93.374001"
   cx="87.411003" />
            </g>
            <g
   id="g1058"
   transform="matrix(0.863067,0,0,0.863067,-49.3626,245.028)">
                <circle
   id="circle1056"
   style="fill:none;stroke:#ff0000;stroke-width:1.16px"
   r="32.022999"
   cy="93.374001"
   cx="87.411003" />
            </g>
            <g
   id="g1062"
   transform="matrix(0.863067,0,0,0.863067,-49.3626,313.428)">
                <circle
   id="circle1060"
   style="fill:none;stroke:#ff0000;stroke-width:1.16px"
   r="32.022999"
   cy="93.374001"
   cx="87.411003" />
            </g>
            <g
   transform="rotate(90,97.51175,185.66925)"
   id="box8366-longside1">
                <path
   inkscape:connector-curvature="0"
   id="path1064"
   style="fill:none;fill-rule:nonzero;stroke:#ff0000;stroke-width:0.28px;stroke-linecap:butt;stroke-linejoin:miter;stroke-miterlimit:4"
   d="m -8.504,164.693 v -8.504 h 22.485 v 8.504 h 27.962 v -3.969 l -0.284,-0.283 0.284,-0.284 v -3.968 h 27.961 v 8.504 h 27.962 v -3.969 l -0.283,-0.283 0.283,-0.284 v -3.968 h 27.962 v 8.504 h 27.962 v -3.969 l -0.284,-0.283 0.284,-0.284 v -3.968 h 27.961 v 8.504 h 27.962 v -3.969 l -0.283,-0.283 0.283,-0.284 v -3.968 h 27.962 v 8.504 h 27.962 v -3.969 l -0.284,-0.283 0.284,-0.284 v -3.968 h 27.961 v 8.504 h 27.962 v -3.969 l -0.283,-0.283 0.283,-0.284 v -3.968 h 27.962 v 8.504 h 27.962 v -3.969 l -0.284,-0.283 0.284,-0.284 v -3.968 h 22.484 v 20.215 H 396 l -0.283,0.283 -0.284,-0.283 h -3.968 v 23.421 h 8.503 v 23.421 H 396 l -0.283,0.284 -0.284,-0.284 h -3.968 v 23.421 h 8.503 v 23.422 H 396 l -0.283,0.283 -0.284,-0.283 h -3.968 v 23.421 h 8.503 v 23.421 H 396 l -0.283,0.284 -0.284,-0.284 h -3.968 v 23.421 h 8.503 v 20.215 h -8.503 -13.981 v -3.969 l -0.284,-0.283 0.284,-0.284 v -3.968 h -27.962 v 8.504 H 335.541 321.56 v -3.969 l -0.283,-0.283 0.283,-0.284 v -3.968 h -27.962 v 8.504 h -13.98 -13.981 v -3.969 l -0.284,-0.283 0.284,-0.284 v -3.968 h -27.962 v 8.504 h -13.981 -13.981 v -3.969 l -0.283,-0.283 0.283,-0.284 v -3.968 h -27.962 v 8.504 h -13.98 -13.981 v -3.969 l -0.284,-0.283 0.284,-0.284 v -3.968 h -27.962 v 8.504 H 111.847 97.866 v -3.969 l -0.283,-0.283 0.283,-0.284 v -3.968 H 69.904 v 8.504 H 55.924 41.943 v -3.969 l -0.284,-0.283 0.284,-0.284 v -3.968 H 13.981 v 8.504 H 0 -8.504 v -8.504 -11.711 H 0 v -23.421 h -3.969 l -0.283,0.284 -0.283,-0.284 H -8.504 V 305.22 293.51 H 0 v -23.421 h -3.969 l -0.283,0.283 -0.283,-0.283 H -8.504 V 258.378 246.667 H 0 v -23.421 h -3.969 l -0.283,0.284 -0.283,-0.284 h -3.969 v -11.711 -11.71 H 0 v -23.421 h -3.969 l -0.283,0.283 -0.283,-0.283 h -3.969 v -11.711" />
            </g>
        </g>
        <g
   transform="rotate(90,273.54345,368.78755)"
   id="box8366-lid">
            <path
   inkscape:connector-curvature="0"
   id="path1068"
   style="fill:none;fill-rule:nonzero;stroke:#ff0000;stroke-width:0.28px;stroke-linecap:butt;stroke-linejoin:miter;stroke-miterlimit:4"
   d="m 0,0 h 13.981 v -3.969 l -0.284,-0.283 0.284,-0.283 V -8.504 H 41.943 V 0 h 27.961 v -3.969 l -0.283,-0.283 0.283,-0.283 V -8.504 H 97.866 V 0 h 27.962 v -3.969 l -0.284,-0.283 0.284,-0.283 V -8.504 H 153.79 V 0 h 27.961 v -3.969 l -0.283,-0.283 0.283,-0.283 v -3.969 h 27.962 V 0 h 27.962 v -3.969 l -0.284,-0.283 0.284,-0.283 v -3.969 h 27.962 V 0 h 27.961 v -3.969 l -0.283,-0.283 0.283,-0.283 V -8.504 H 321.56 V 0 h 27.962 v -3.969 l -0.284,-0.283 0.284,-0.283 v -3.969 h 27.962 V 0 h 13.981 v 11.598 h 8.503 V 34.795 H 396 l -0.283,0.284 -0.284,-0.284 h -3.968 v 23.197 h 8.503 V 81.189 H 396 l -0.283,0.283 -0.284,-0.283 h -3.968 v 23.197 h 8.503 v 23.197 H 396 l -0.283,0.283 -0.284,-0.283 h -3.968 v 11.598 h -13.981 v 8.504 h -27.962 v -3.968 l -0.284,-0.284 0.284,-0.283 v -3.969 H 335.541 321.56 v 8.504 h -27.962 v -3.968 l -0.283,-0.284 0.283,-0.283 v -3.969 h -13.98 -13.981 v 8.504 h -27.962 v -3.968 l -0.284,-0.284 0.284,-0.283 v -3.969 h -13.981 -13.981 v 8.504 h -27.962 v -3.968 l -0.283,-0.284 0.283,-0.283 v -3.969 h -13.98 -13.981 v 8.504 h -27.962 v -3.968 l -0.284,-0.284 0.284,-0.283 v -3.969 H 111.847 97.866 v 8.504 H 69.904 v -3.968 l -0.283,-0.284 0.283,-0.283 v -3.969 H 55.924 41.943 v 8.504 H 13.981 v -3.968 l -0.284,-0.284 0.284,-0.283 v -3.969 H 0 v -11.598 h -3.969 l -0.283,0.283 -0.283,-0.283 H -8.504 V 104.386 H 0 V 92.787 81.189 h -3.969 l -0.283,0.283 -0.283,-0.283 H -8.504 V 57.992 H 0 V 46.394 34.795 h -3.969 l -0.283,0.284 -0.283,-0.284 H -8.504 V 11.598 H 0 V 0" />
        </g>
        <g
   transform="translate(-274.394,503.717)"
   id="box8366-endface2">
            <path
   inkscape:connector-curvature="0"
   id="path1071"
   style="fill:none;fill-rule:nonzero;stroke:#ff0000;stroke-width:0.28px;stroke-linecap:butt;stroke-linejoin:miter;stroke-miterlimit:4"
   d="m 408.472,0 h 20.215 v -8.504 h 23.421 v 3.969 l 0.284,0.283 -0.284,0.283 V 0 h 23.422 v -8.504 h 23.421 v 3.969 l 0.283,0.283 -0.283,0.283 V 0 h 23.421 v -8.504 h 23.421 v 3.969 l 0.284,0.283 -0.284,0.283 V 0 h 23.422 v -8.504 h 23.421 v 3.969 l 0.283,0.283 -0.283,0.283 V 0 h 20.214 v 11.598 h -3.968 l -0.284,0.284 -0.283,-0.284 h -3.969 v 23.197 h 8.504 v 23.197 h -3.968 l -0.284,0.284 -0.283,-0.284 h -3.969 v 23.197 h 8.504 v 23.197 h -3.968 l -0.284,0.283 -0.283,-0.283 h -3.969 v 23.197 h 8.504 v 11.598 h -8.504 -11.71 v 3.969 l 0.283,0.283 -0.283,0.284 v 3.968 h -23.421 v -8.504 h -11.711 -11.711 v 3.969 l 0.284,0.283 -0.284,0.284 v 3.968 h -23.421 v -8.504 h -11.711 -11.71 v 3.969 l 0.283,0.283 -0.283,0.284 v 3.968 H 475.53 v -8.504 h -11.711 -11.711 v 3.969 l 0.284,0.283 -0.284,0.284 v 3.968 h -23.421 v -8.504 h -11.711 -8.504 v -11.598 h 8.504 v -23.197 h -3.968 l -0.284,0.283 -0.283,-0.283 h -3.969 V 92.787 81.189 h 8.504 V 57.992 h -3.968 l -0.284,0.284 -0.283,-0.284 h -3.969 V 46.394 34.795 h 8.504 V 11.598 h -3.968 l -0.284,0.284 -0.283,-0.284 h -3.969 V 0" />
        </g>
        <g
   transform="translate(-478.772,126.142)"
   id="box8366-endface1">
            <path
   inkscape:connector-curvature="0"
   id="path1074"
   style="fill:none;fill-rule:nonzero;stroke:#ff0000;stroke-width:0.28px;stroke-linecap:butt;stroke-linejoin:miter;stroke-miterlimit:4"
   d="m 408.472,377.575 h 20.215 v -8.504 h 23.421 v 3.968 l 0.284,0.284 -0.284,0.283 v 3.969 h 23.422 v -8.504 h 23.421 v 3.968 l 0.283,0.284 -0.283,0.283 v 3.969 h 23.421 v -8.504 h 23.421 v 3.968 l 0.284,0.284 -0.284,0.283 v 3.969 h 23.422 v -8.504 h 23.421 v 3.968 l 0.283,0.284 -0.283,0.283 v 3.969 h 20.214 v 11.598 h -3.968 l -0.284,0.284 -0.283,-0.284 h -3.969 v 23.197 h 8.504 v 23.197 h -3.968 l -0.284,0.283 -0.283,-0.283 h -3.969 v 23.197 h 8.504 v 23.197 h -3.968 l -0.284,0.283 -0.283,-0.283 h -3.969 v 23.196 h 8.504 v 11.599 h -8.504 -11.71 v 3.968 l 0.283,0.284 -0.283,0.283 v 3.969 h -23.421 v -8.504 h -11.711 -11.711 v 3.968 l 0.284,0.284 -0.284,0.283 v 3.969 h -23.421 v -8.504 h -11.711 -11.71 v 3.968 l 0.283,0.284 -0.283,0.283 v 3.969 H 475.53 v -8.504 h -11.711 -11.711 v 3.968 l 0.284,0.284 -0.284,0.283 v 3.969 h -23.421 v -8.504 h -11.711 -8.504 v -11.599 h 8.504 v -23.196 h -3.968 l -0.284,0.283 -0.283,-0.283 h -3.969 v -11.599 -11.598 h 8.504 v -23.197 h -3.968 l -0.284,0.283 -0.283,-0.283 h -3.969 V 423.969 412.37 h 8.504 v -23.197 h -3.968 l -0.284,0.284 -0.283,-0.284 h -3.969 v -11.598" />
        </g>
    </g>
</svg>
