<?xml version="1.0" encoding="UTF-8" standalone="no"?>
<svg
   xmlns:dc="http://purl.org/dc/elements/1.1/"
   xmlns:cc="http://creativecommons.org/ns#"
   xmlns:rdf="http://www.w3.org/1999/02/22-rdf-syntax-ns#"
   xmlns:svg="http://www.w3.org/2000/svg"
   xmlns="http://www.w3.org/2000/svg"
   xmlns:sodipodi="http://sodipodi.sourceforge.net/DTD/sodipodi-0.dtd"
   xmlns:inkscape="http://www.inkscape.org/namespaces/inkscape"
   inkscape:version="1.0beta1 (76ce730, 2019-10-19)"
   sodipodi:docname="IN14-Case.svg"
   id="svg903"
   style="clip-rule:evenodd;fill-rule:evenodd"
   xml:space="preserve"
   version="1.1"
   viewBox="0 0 300 200"
   height="200mm"
   width="300mm"><metadata
   id="metadata909"><rdf:RDF><cc:Work
       rdf:about=""><dc:format>image/svg+xml</dc:format><dc:type
         rdf:resource="http://purl.org/dc/dcmitype/StillImage" /><dc:title></dc:title></cc:Work></rdf:RDF></metadata><defs
   id="defs907" /><sodipodi:namedview
   inkscape:current-layer="svg903"
   inkscape:window-maximized="0"
   inkscape:window-y="23"
   inkscape:window-x="0"
   inkscape:cy="383.94287"
   inkscape:cx="441.25296"
   inkscape:zoom="0.83997737"
   inkscape:guide-bbox="true"
   showguides="true"
   units="mm"
   inkscape:document-units="mm"
   showgrid="false"
   id="namedview905"
   inkscape:window-height="855"
   inkscape:window-width="1440"
   inkscape:pageshadow="2"
   inkscape:pageopacity="0"
   guidetolerance="10"
   gridtolerance="10"
   objecttolerance="10"
   borderopacity="1"
   inkscape:document-rotation="0"
   bordercolor="#666666"
   pagecolor="#ffffff" />
    <g
   transform="matrix(0.35232816,0,0,0.35232816,24.944834,-30.385133)"
   id="box7937">
        <g
   transform="rotate(90,272.488,429.386)"
   id="box7937-lid">
            <path
   inkscape:connector-curvature="0"
   id="path833"
   style="fill:none;fill-rule:nonzero;stroke:#ff0000;stroke-width:1px"
   d="m -61.654,95.386 h 13.475 v -3.969 l -0.283,-0.283 0.283,-0.284 v -3.968 h 26.95 v 8.504 H 5.72 V 91.417 L 5.436,91.134 5.72,90.85 v -3.968 h 26.949 v 8.504 h 26.95 v -3.969 l -0.284,-0.283 0.284,-0.284 v -3.968 h 26.949 v 8.504 h 26.949 v -3.969 l -0.283,-0.283 0.283,-0.284 v -3.968 h 26.95 v 8.504 h 26.949 v -3.969 l -0.283,-0.283 0.283,-0.284 v -3.968 h 26.95 v 8.504 h 26.949 v -3.969 l -0.284,-0.283 0.284,-0.284 v -3.968 h 26.949 v 8.504 h 26.95 v -3.969 l -0.284,-0.283 0.284,-0.284 v -3.968 h 26.949 v 8.504 h 13.475 v 10.89 h 8.504 v 21.779 h -3.969 l -0.283,0.284 -0.284,-0.284 h -3.968 v 21.78 h 8.504 v 21.779 h -3.969 l -0.283,0.284 -0.284,-0.284 h -3.968 v 21.78 h 8.504 v 21.779 h -3.969 l -0.283,0.284 -0.284,-0.284 h -3.968 v 10.89 h -13.475 v 8.504 h -26.949 v -3.969 l -0.284,-0.283 0.284,-0.283 v -3.969 h -13.475 -13.475 v 8.504 h -26.949 v -3.969 l -0.284,-0.283 0.284,-0.283 v -3.969 H 207.84 194.366 v 8.504 h -26.95 v -3.969 l -0.283,-0.283 0.283,-0.283 v -3.969 h -13.475 -13.474 v 8.504 h -26.95 v -3.969 l -0.283,-0.283 0.283,-0.283 v -3.969 H 100.043 86.568 v 8.504 H 59.619 v -3.969 l -0.284,-0.283 0.284,-0.283 v -3.969 H 46.144 32.669 v 8.504 H 5.72 v -3.969 l -0.284,-0.283 0.284,-0.283 v -3.969 H -7.755 -21.229 v 8.504 h -26.95 v -3.969 l -0.283,-0.283 0.283,-0.283 v -3.969 h -13.475 v -10.89 h -3.968 l -0.284,0.284 -0.283,-0.284 h -3.968 v -21.779 h 8.503 v -10.89 -10.89 h -3.968 l -0.284,0.284 -0.283,-0.284 h -3.968 v -21.779 h 8.503 v -10.89 -10.89 h -3.968 l -0.284,0.284 -0.283,-0.284 h -3.968 v -21.779 h 8.503 v -10.89" />
        </g>
        <g
   id="Bottom">
            <g
   transform="rotate(90,103.039,259.937)"
   id="box7937-longside1">
                <path
   inkscape:connector-curvature="0"
   id="path836"
   style="fill:none;fill-rule:nonzero;stroke:#ff0000;stroke-width:1px"
   d="m -70.157,251.575 v -8.504 h 21.978 v 8.504 h 26.95 v -3.969 l -0.284,-0.283 0.284,-0.284 v -3.968 H 5.72 v 8.504 h 26.949 v -3.969 l -0.283,-0.283 0.283,-0.284 v -3.968 h 26.95 v 8.504 h 26.949 v -3.969 l -0.283,-0.283 0.283,-0.284 v -3.968 h 26.949 v 8.504 h 26.95 v -3.969 l -0.284,-0.283 0.284,-0.284 v -3.968 h 26.949 v 8.504 h 26.95 v -3.969 l -0.284,-0.283 0.284,-0.284 v -3.968 h 26.949 v 8.504 h 26.949 v -3.969 l -0.283,-0.283 0.283,-0.284 v -3.968 h 26.95 v 8.504 h 26.949 v -3.969 l -0.283,-0.283 0.283,-0.284 v -3.968 h 21.979 V 262.4 h -3.969 l -0.283,0.283 -0.284,-0.283 h -3.968 v 21.649 h 8.504 v 21.65 h -3.969 l -0.283,0.283 -0.284,-0.283 h -3.968 v 21.649 h 8.504 v 21.65 h -3.969 l -0.283,0.283 -0.284,-0.283 h -3.968 v 21.65 h 8.504 v 21.649 h -3.969 l -0.283,0.284 -0.284,-0.284 h -3.968 v 21.65 h 8.504 v 19.329 h -8.504 -13.475 v -3.969 l -0.283,-0.283 0.283,-0.284 v -3.968 h -26.949 v 8.504 h -13.475 -13.475 v -3.969 l -0.283,-0.283 0.283,-0.284 v -3.968 h -26.949 v 8.504 H 207.84 194.366 v -3.969 l -0.284,-0.283 0.284,-0.284 v -3.968 h -26.95 v 8.504 h -13.475 -13.474 v -3.969 l -0.284,-0.283 0.284,-0.284 v -3.968 h -26.95 v 8.504 H 100.043 86.568 v -3.969 l -0.283,-0.283 0.283,-0.284 v -3.968 H 59.619 v 8.504 H 46.144 32.669 v -3.969 l -0.283,-0.283 0.283,-0.284 v -3.968 H 5.72 v 8.504 H -7.755 -21.229 v -3.969 l -0.284,-0.283 0.284,-0.284 v -3.968 h -26.95 v 8.504 h -13.475 -8.503 v -8.504 -10.825 h 8.503 v -21.65 h -3.968 l -0.284,0.284 -0.283,-0.284 h -3.968 v -10.825 -10.824 h 8.503 v -21.65 h -3.968 l -0.284,0.283 -0.283,-0.283 h -3.968 v -10.825 -10.825 h 8.503 v -21.649 h -3.968 l -0.284,0.283 -0.283,-0.283 h -3.968 v -10.825 -10.825 h 8.503 V 262.4 h -3.968 l -0.284,0.283 -0.283,-0.283 h -3.968 v -10.825" />
            </g>
            <g
   id="g841"
   transform="matrix(0.3306,0,0,0.3306,-84.2841,151.171)">
                <circle
   id="circle839"
   style="fill:none;stroke:#ff0000;stroke-width:3.02px;stroke-linecap:round;stroke-linejoin:round;stroke-miterlimit:1.5"
   r="12.004"
   cy="173.802"
   cx="118.374" />
            </g>
            <g
   id="g845"
   transform="matrix(0.3306,0,0,0.3306,0.755309,95.8953)">
                <circle
   id="circle843"
   style="fill:none;stroke:#ff0000;stroke-width:3.02px;stroke-linecap:round;stroke-linejoin:round;stroke-miterlimit:1.5"
   r="12.004"
   cy="173.802"
   cx="118.374" />
            </g>
            <g
   id="g849"
   transform="matrix(0.3306,0,0,0.3306,-84.2841,356.683)">
                <circle
   id="circle847"
   style="fill:none;stroke:#ff0000;stroke-width:3.02px;stroke-linecap:round;stroke-linejoin:round;stroke-miterlimit:1.5"
   r="12.004"
   cy="173.802"
   cx="118.374" />
            </g>
            <g
   id="g853"
   transform="matrix(0.3306,0,0,0.3306,25.4955,301.421)">
                <circle
   id="circle851"
   style="fill:none;stroke:#ff0000;stroke-width:3.02px;stroke-linecap:round;stroke-linejoin:round;stroke-miterlimit:1.5"
   r="12.004"
   cy="173.802"
   cx="118.374" />
            </g>
            <g
   id="g857"
   transform="matrix(0.3306,0,0,0.3306,25.4955,150.207)">
                <circle
   id="circle855"
   style="fill:none;stroke:#ff0000;stroke-width:3.02px;stroke-linecap:round;stroke-linejoin:round;stroke-miterlimit:1.5"
   r="12.004"
   cy="173.802"
   cx="118.374" />
            </g>
            <g
   id="g861"
   transform="matrix(0.3306,0,0,0.3306,-38.9297,356.683)">
                <circle
   id="circle859"
   style="fill:none;stroke:#ff0000;stroke-width:3.02px;stroke-linecap:round;stroke-linejoin:round;stroke-miterlimit:1.5"
   r="12.004"
   cy="173.802"
   cx="118.374" />
            </g>
        </g>
        <g
   transform="translate(193)"
   id="Back">
            <g
   transform="rotate(90,181.1335,338.0315)"
   id="box7937-base">
                <path
   inkscape:connector-curvature="0"
   id="path864"
   style="fill:none;fill-rule:nonzero;stroke:#ff0000;stroke-width:1px"
   d="m -61.654,450.283 h 13.475 v -3.968 l -0.283,-0.284 0.283,-0.283 v -3.968 h 26.95 v 8.503 H 5.72 v -3.968 l -0.284,-0.284 0.284,-0.283 v -3.968 h 26.949 v 8.503 h 26.95 v -3.968 l -0.284,-0.284 0.284,-0.283 v -3.968 h 26.949 v 8.503 h 26.949 v -3.968 l -0.283,-0.284 0.283,-0.283 v -3.968 h 26.95 v 8.503 h 26.949 v -3.968 l -0.283,-0.284 0.283,-0.283 v -3.968 h 26.95 v 8.503 h 26.949 v -3.968 l -0.284,-0.284 0.284,-0.283 v -3.968 h 26.949 v 8.503 h 26.95 v -3.968 l -0.284,-0.284 0.284,-0.283 v -3.968 h 26.949 v 8.503 h 13.475 v 10.89 h 8.504 v 21.78 h -3.969 l -0.283,0.283 -0.284,-0.283 h -3.968 v 21.779 h 8.504 v 21.78 h -3.969 l -0.283,0.283 -0.284,-0.283 h -3.968 v 21.779 h 8.504 v 21.78 h -3.969 l -0.283,0.283 -0.284,-0.283 h -3.968 v 10.89 h -13.475 v 8.504 h -26.949 v -3.969 l -0.284,-0.283 0.284,-0.284 v -3.968 h -13.475 -13.475 v 8.504 h -26.949 v -3.969 l -0.284,-0.283 0.284,-0.284 v -3.968 H 207.84 194.366 v 8.504 h -26.95 v -3.969 l -0.283,-0.283 0.283,-0.284 v -3.968 h -13.475 -13.474 v 8.504 h -26.95 v -3.969 l -0.283,-0.283 0.283,-0.284 v -3.968 H 100.043 86.568 v 8.504 H 59.619 v -3.969 l -0.284,-0.283 0.284,-0.284 v -3.968 H 46.144 32.669 v 8.504 H 5.72 v -3.969 l -0.284,-0.283 0.284,-0.284 v -3.968 H -7.755 -21.229 v 8.504 h -26.95 v -3.969 l -0.283,-0.283 0.283,-0.284 v -3.968 h -13.475 v -10.89 h -3.968 l -0.284,0.283 -0.283,-0.283 h -3.968 v -21.78 h 8.503 v -10.889 -10.89 h -3.968 l -0.284,0.283 -0.283,-0.283 h -3.968 v -21.78 h 8.503 v -10.889 -10.89 h -3.968 l -0.284,0.283 -0.283,-0.283 h -3.968 v -21.78 h 8.503 v -10.89" />
            </g>
            <g
   id="g869"
   transform="matrix(0.750824,0,0,-0.750824,-57.6245,412.994)">
                <circle
   id="circle867"
   style="fill:none;stroke:#ff0000;stroke-width:1.33px;stroke-linecap:round;stroke-linejoin:round;stroke-miterlimit:1.5"
   r="16.989"
   cy="28.327999"
   cx="54.935001" />
            </g>
            <g
   id="g873"
   transform="matrix(0.580124,0,0,-0.870186,-17.7953,405.188)">
                <path
   inkscape:connector-curvature="0"
   id="path871"
   style="fill:none;stroke:#ff0000;stroke-width:1.35px;stroke-linecap:round;stroke-linejoin:round;stroke-miterlimit:1.5"
   d="m 34.204,94.726 c 0,-1.258 -1.533,-2.28 -3.42,-2.28 H 3.42 C 1.533,92.446 0,93.468 0,94.726 v 29.644 c 0,1.258 1.533,2.28 3.42,2.28 h 27.364 c 1.887,0 3.42,-1.022 3.42,-2.28 z" />
            </g>
        </g>
        <g
   transform="translate(344)"
   id="Top">
            <g
   transform="rotate(90,280.488,437.386)"
   id="box7937-longside2">
                <path
   inkscape:connector-curvature="0"
   id="path876"
   style="fill:none;fill-rule:nonzero;stroke:#ff0000;stroke-width:1px"
   d="m -70.157,606.472 v -8.503 h 21.978 v 8.503 h 26.95 v -3.968 l -0.284,-0.284 0.284,-0.283 v -3.968 H 5.72 v 8.503 h 26.949 v -3.968 l -0.283,-0.284 0.283,-0.283 v -3.968 h 26.95 v 8.503 h 26.949 v -3.968 l -0.283,-0.284 0.283,-0.283 v -3.968 h 26.949 v 8.503 h 26.95 v -3.968 l -0.284,-0.284 0.284,-0.283 v -3.968 h 26.949 v 8.503 h 26.95 v -3.968 l -0.284,-0.284 0.284,-0.283 v -3.968 h 26.949 v 8.503 h 26.949 v -3.968 l -0.283,-0.284 0.283,-0.283 v -3.968 h 26.95 v 8.503 h 26.949 v -3.968 l -0.283,-0.284 0.283,-0.283 v -3.968 h 21.979 v 19.328 h -3.969 l -0.283,0.284 -0.284,-0.284 h -3.968 v 21.65 h 8.504 v 21.649 h -3.969 l -0.283,0.284 -0.284,-0.284 h -3.968 v 21.65 h 8.504 v 21.65 h -3.969 l -0.283,0.283 -0.284,-0.283 h -3.968 v 21.649 h 8.504 v 21.65 h -3.969 l -0.283,0.283 -0.284,-0.283 h -3.968 v 21.649 h 8.504 v 19.329 h -8.504 -13.475 v -3.968 l -0.283,-0.284 0.283,-0.283 v -3.969 h -26.949 v 8.504 h -13.475 -13.475 v -3.968 l -0.283,-0.284 0.283,-0.283 v -3.969 h -26.949 v 8.504 H 207.84 194.366 v -3.968 l -0.284,-0.284 0.284,-0.283 v -3.969 h -26.95 v 8.504 h -13.475 -13.474 v -3.968 l -0.284,-0.284 0.284,-0.283 v -3.969 h -26.95 v 8.504 H 100.043 86.568 v -3.968 l -0.283,-0.284 0.283,-0.283 v -3.969 H 59.619 v 8.504 H 46.144 32.669 v -3.968 l -0.283,-0.284 0.283,-0.283 v -3.969 H 5.72 v 8.504 H -7.755 -21.229 v -3.968 l -0.284,-0.284 0.284,-0.283 v -3.969 h -26.95 v 8.504 h -13.475 -8.503 v -8.504 -10.825 h 8.503 v -21.649 h -3.968 l -0.284,0.283 -0.283,-0.283 h -3.968 V 736.37 725.545 h 8.503 v -21.649 h -3.968 l -0.284,0.283 -0.283,-0.283 h -3.968 v -10.825 -10.825 h 8.503 v -21.65 h -3.968 l -0.284,0.284 -0.283,-0.284 h -3.968 v -10.824 -10.825 h 8.503 v -21.65 h -3.968 l -0.284,0.284 -0.283,-0.284 h -3.968 v -10.825" />
            </g>
            <g
   id="g881"
   transform="matrix(0.863067,0,0,0.863067,-49.3626,93.8277)">
                <circle
   id="circle879"
   style="fill:none;stroke:#ff0000;stroke-width:1.16px;stroke-linecap:round;stroke-linejoin:round;stroke-miterlimit:1.5"
   r="32.022999"
   cy="93.374001"
   cx="87.411003" />
            </g>
            <g
   id="g885"
   transform="matrix(0.863067,0,0,0.863067,-49.3626,162.228)">
                <circle
   id="circle883"
   style="fill:none;stroke:#ff0000;stroke-width:1.16px;stroke-linecap:round;stroke-linejoin:round;stroke-miterlimit:1.5"
   r="32.022999"
   cy="93.374001"
   cx="87.411003" />
            </g>
            <g
   id="g889"
   transform="matrix(0.863067,0,0,0.863067,-49.3626,245.028)">
                <circle
   id="circle887"
   style="fill:none;stroke:#ff0000;stroke-width:1.16px;stroke-linecap:round;stroke-linejoin:round;stroke-miterlimit:1.5"
   r="32.022999"
   cy="93.374001"
   cx="87.411003" />
            </g>
            <g
   id="g893"
   transform="matrix(0.863067,0,0,0.863067,-49.3626,313.428)">
                <circle
   id="circle891"
   style="fill:none;stroke:#ff0000;stroke-width:1.16px;stroke-linecap:round;stroke-linejoin:round;stroke-miterlimit:1.5"
   r="32.022999"
   cy="93.374001"
   cx="87.411003" />
            </g>
        </g>
        <g
   transform="translate(-203.598,397.921)"
   id="box7937-endface2">
            <path
   inkscape:connector-curvature="0"
   id="path896"
   style="fill:none;fill-rule:nonzero;stroke:#ff0000;stroke-width:1px"
   d="m 332.646,95.386 h 19.328 v -8.504 h 21.65 v 3.968 l 0.283,0.284 -0.283,0.283 v 3.969 h 21.65 v -8.504 h 21.649 v 3.968 l 0.284,0.284 -0.284,0.283 v 3.969 h 21.65 v -8.504 h 21.649 v 3.968 l 0.284,0.284 -0.284,0.283 v 3.969 h 21.65 v -8.504 h 21.65 v 3.968 l 0.283,0.284 -0.283,0.283 v 3.969 h 19.328 v 10.89 h -3.968 l -0.284,0.283 -0.283,-0.283 h -3.969 v 21.779 h 8.504 v 21.78 h -3.968 l -0.284,0.283 -0.283,-0.283 h -3.969 v 21.779 h 8.504 v 21.78 h -3.968 l -0.284,0.283 -0.283,-0.283 h -3.969 v 21.779 h 8.504 v 10.89 h -8.504 -10.824 v 3.969 l 0.283,0.283 -0.283,0.283 v 3.969 h -21.65 v -8.504 h -10.825 -10.825 v 3.969 l 0.284,0.283 -0.284,0.283 v 3.969 h -21.649 v -8.504 h -10.825 -10.825 v 3.969 l 0.284,0.283 -0.284,0.283 v 3.969 h -21.649 v -8.504 h -10.825 -10.825 v 3.969 l 0.283,0.283 -0.283,0.283 v 3.969 h -21.65 v -8.504 h -10.824 -8.504 v -10.89 h 8.504 v -21.779 h -3.969 l -0.283,0.283 -0.284,-0.283 h -3.968 v -10.89 -10.89 h 8.504 v -21.779 h -3.969 l -0.283,0.283 -0.284,-0.283 h -3.968 v -10.89 -10.89 h 8.504 v -21.779 h -3.969 l -0.283,0.283 -0.284,-0.283 h -3.968 v -10.89" />
        </g>
        <g
   transform="translate(-398.496,43.0236)"
   id="box7937-endface1">
            <path
   inkscape:connector-curvature="0"
   id="path899"
   style="fill:none;fill-rule:nonzero;stroke:#ff0000;stroke-width:1px"
   d="m 332.646,450.283 h 19.328 v -8.503 h 21.65 v 3.968 l 0.283,0.283 -0.283,0.284 v 3.968 h 21.65 v -8.503 h 21.649 v 3.968 l 0.284,0.283 -0.284,0.284 v 3.968 h 21.65 v -8.503 h 21.649 v 3.968 l 0.284,0.283 -0.284,0.284 v 3.968 h 21.65 v -8.503 h 21.65 v 3.968 l 0.283,0.283 -0.283,0.284 v 3.968 h 19.328 v 10.89 h -3.968 l -0.284,0.284 -0.283,-0.284 h -3.969 v 21.78 h 8.504 v 21.779 h -3.968 l -0.284,0.284 -0.283,-0.284 h -3.969 v 21.78 h 8.504 v 21.779 h -3.968 l -0.284,0.284 -0.283,-0.284 h -3.969 v 21.78 h 8.504 v 10.89 h -8.504 -10.824 v 3.968 l 0.283,0.284 -0.283,0.283 v 3.969 h -21.65 v -8.504 h -10.825 -10.825 v 3.968 l 0.284,0.284 -0.284,0.283 v 3.969 h -21.649 v -8.504 h -10.825 -10.825 v 3.968 l 0.284,0.284 -0.284,0.283 v 3.969 h -21.649 v -8.504 h -10.825 -10.825 v 3.968 l 0.283,0.284 -0.283,0.283 v 3.969 h -21.65 v -8.504 h -10.824 -8.504 v -10.89 h 8.504 v -21.78 h -3.969 l -0.283,0.284 -0.284,-0.284 h -3.968 v -10.889 -10.89 h 8.504 v -21.78 h -3.969 l -0.283,0.284 -0.284,-0.284 h -3.968 v -10.889 -10.89 h 8.504 v -21.78 h -3.969 l -0.283,0.284 -0.284,-0.284 h -3.968 v -10.89" />
        </g>
    </g>
</svg>
