G04 EAGLE Gerber RS-274X export*
G75*
%MOMM*%
%FSLAX34Y34*%
%LPD*%
%IN*%
%IPPOS*%
%AMOC8*
5,1,8,0,0,1.08239X$1,22.5*%
G01*
%ADD10C,0.254000*%


D10*
X0Y20000D02*
X76Y18257D01*
X304Y16527D01*
X681Y14824D01*
X1206Y13160D01*
X1874Y11548D01*
X2680Y10000D01*
X3617Y8528D01*
X4679Y7144D01*
X5858Y5858D01*
X7144Y4679D01*
X8528Y3617D01*
X10000Y2680D01*
X11548Y1874D01*
X13160Y1206D01*
X14824Y681D01*
X16527Y304D01*
X18257Y76D01*
X20000Y0D01*
X430000Y0D01*
X431743Y76D01*
X433473Y304D01*
X435176Y681D01*
X436840Y1206D01*
X438452Y1874D01*
X440000Y2680D01*
X441472Y3617D01*
X442856Y4679D01*
X444142Y5858D01*
X445321Y7144D01*
X446383Y8528D01*
X447321Y10000D01*
X448126Y11548D01*
X448794Y13160D01*
X449319Y14824D01*
X449696Y16527D01*
X449924Y18257D01*
X450000Y20000D01*
X450000Y350000D01*
X449924Y351743D01*
X449696Y353473D01*
X449319Y355176D01*
X448794Y356840D01*
X448126Y358452D01*
X447321Y360000D01*
X446383Y361472D01*
X445321Y362856D01*
X444142Y364142D01*
X442856Y365321D01*
X441472Y366383D01*
X440000Y367321D01*
X438452Y368126D01*
X436840Y368794D01*
X435176Y369319D01*
X433473Y369696D01*
X431743Y369924D01*
X430000Y370000D01*
X20000Y370000D01*
X18257Y369924D01*
X16527Y369696D01*
X14824Y369319D01*
X13160Y368794D01*
X11548Y368126D01*
X10000Y367321D01*
X8528Y366383D01*
X7144Y365321D01*
X5858Y364142D01*
X4679Y362856D01*
X3617Y361472D01*
X2680Y360000D01*
X1874Y358452D01*
X1206Y356840D01*
X681Y355176D01*
X304Y353473D01*
X76Y351743D01*
X0Y350000D01*
X0Y20000D01*
X35000Y229464D02*
X34924Y228396D01*
X34771Y227335D01*
X34543Y226288D01*
X34241Y225260D01*
X33867Y224256D01*
X33422Y223281D01*
X32908Y222341D01*
X32329Y221440D01*
X31687Y220582D01*
X30985Y219772D01*
X30228Y219015D01*
X29418Y218313D01*
X28560Y217671D01*
X27659Y217092D01*
X26719Y216578D01*
X25744Y216133D01*
X24740Y215759D01*
X23712Y215457D01*
X22665Y215229D01*
X21604Y215076D01*
X20536Y215000D01*
X19464Y215000D01*
X18396Y215076D01*
X17335Y215229D01*
X16288Y215457D01*
X15260Y215759D01*
X14256Y216133D01*
X13281Y216578D01*
X12341Y217092D01*
X11440Y217671D01*
X10582Y218313D01*
X9772Y219015D01*
X9015Y219772D01*
X8313Y220582D01*
X7671Y221440D01*
X7092Y222341D01*
X6578Y223281D01*
X6133Y224256D01*
X5759Y225260D01*
X5457Y226288D01*
X5229Y227335D01*
X5076Y228396D01*
X5000Y229464D01*
X5000Y230536D01*
X5076Y231604D01*
X5229Y232665D01*
X5457Y233712D01*
X5759Y234740D01*
X6133Y235744D01*
X6578Y236719D01*
X7092Y237659D01*
X7671Y238560D01*
X8313Y239418D01*
X9015Y240228D01*
X9772Y240985D01*
X10582Y241687D01*
X11440Y242329D01*
X12341Y242908D01*
X13281Y243422D01*
X14256Y243867D01*
X15260Y244241D01*
X16288Y244543D01*
X17335Y244771D01*
X18396Y244924D01*
X19464Y245000D01*
X20536Y245000D01*
X21604Y244924D01*
X22665Y244771D01*
X23712Y244543D01*
X24740Y244241D01*
X25744Y243867D01*
X26719Y243422D01*
X27659Y242908D01*
X28560Y242329D01*
X29418Y241687D01*
X30228Y240985D01*
X30985Y240228D01*
X31687Y239418D01*
X32329Y238560D01*
X32908Y237659D01*
X33422Y236719D01*
X33867Y235744D01*
X34241Y234740D01*
X34543Y233712D01*
X34771Y232665D01*
X34924Y231604D01*
X35000Y230536D01*
X35000Y229464D01*
X445000Y229464D02*
X444924Y228396D01*
X444771Y227335D01*
X444543Y226288D01*
X444241Y225260D01*
X443867Y224256D01*
X443422Y223281D01*
X442908Y222341D01*
X442329Y221440D01*
X441687Y220582D01*
X440985Y219772D01*
X440228Y219015D01*
X439418Y218313D01*
X438560Y217671D01*
X437659Y217092D01*
X436719Y216578D01*
X435744Y216133D01*
X434740Y215759D01*
X433712Y215457D01*
X432665Y215229D01*
X431604Y215076D01*
X430536Y215000D01*
X429464Y215000D01*
X428396Y215076D01*
X427335Y215229D01*
X426288Y215457D01*
X425260Y215759D01*
X424256Y216133D01*
X423281Y216578D01*
X422341Y217092D01*
X421440Y217671D01*
X420582Y218313D01*
X419772Y219015D01*
X419015Y219772D01*
X418313Y220582D01*
X417671Y221440D01*
X417092Y222341D01*
X416578Y223281D01*
X416133Y224256D01*
X415759Y225260D01*
X415457Y226288D01*
X415229Y227335D01*
X415076Y228396D01*
X415000Y229464D01*
X415000Y230536D01*
X415076Y231604D01*
X415229Y232665D01*
X415457Y233712D01*
X415759Y234740D01*
X416133Y235744D01*
X416578Y236719D01*
X417092Y237659D01*
X417671Y238560D01*
X418313Y239418D01*
X419015Y240228D01*
X419772Y240985D01*
X420582Y241687D01*
X421440Y242329D01*
X422341Y242908D01*
X423281Y243422D01*
X424256Y243867D01*
X425260Y244241D01*
X426288Y244543D01*
X427335Y244771D01*
X428396Y244924D01*
X429464Y245000D01*
X430536Y245000D01*
X431604Y244924D01*
X432665Y244771D01*
X433712Y244543D01*
X434740Y244241D01*
X435744Y243867D01*
X436719Y243422D01*
X437659Y242908D01*
X438560Y242329D01*
X439418Y241687D01*
X440228Y240985D01*
X440985Y240228D01*
X441687Y239418D01*
X442329Y238560D01*
X442908Y237659D01*
X443422Y236719D01*
X443867Y235744D01*
X444241Y234740D01*
X444543Y233712D01*
X444771Y232665D01*
X444924Y231604D01*
X445000Y230536D01*
X445000Y229464D01*
M02*
