G04 EAGLE Gerber RS-274X export*
G75*
%MOMM*%
%FSLAX34Y34*%
%LPD*%
%INSilkscreen Bottom*%
%IPPOS*%
%AMOC8*
5,1,8,0,0,1.08239X$1,22.5*%
G01*
%ADD10C,0.050800*%
%ADD11C,0.152400*%
%ADD12C,0.076200*%
%ADD13C,0.101600*%
%ADD14C,0.063500*%

G36*
X258630Y433391D02*
X258630Y433391D01*
X258652Y433388D01*
X260442Y433686D01*
X261932Y433835D01*
X261983Y433854D01*
X262036Y433864D01*
X262056Y433880D01*
X262080Y433889D01*
X262116Y433930D01*
X262157Y433965D01*
X262164Y433986D01*
X262183Y434008D01*
X262208Y434122D01*
X262217Y434150D01*
X262217Y435350D01*
X262199Y435418D01*
X262186Y435486D01*
X262180Y435494D01*
X262177Y435503D01*
X262129Y435554D01*
X262085Y435607D01*
X262076Y435610D01*
X262069Y435618D01*
X261919Y435666D01*
X261908Y435664D01*
X261900Y435667D01*
X261468Y435667D01*
X260787Y435744D01*
X260156Y435964D01*
X259591Y436319D01*
X259119Y436791D01*
X258764Y437356D01*
X258544Y437987D01*
X258467Y438668D01*
X258467Y452300D01*
X258462Y452320D01*
X258465Y452335D01*
X258371Y453170D01*
X258356Y453209D01*
X258355Y453239D01*
X258078Y454032D01*
X258054Y454067D01*
X258047Y454096D01*
X257600Y454807D01*
X257569Y454836D01*
X257556Y454862D01*
X256962Y455456D01*
X256929Y455475D01*
X256911Y455496D01*
X256909Y455497D01*
X256907Y455500D01*
X256196Y455947D01*
X256155Y455960D01*
X256132Y455978D01*
X255339Y456255D01*
X255297Y456259D01*
X255270Y456271D01*
X254435Y456365D01*
X254415Y456362D01*
X254400Y456367D01*
X251700Y456367D01*
X251680Y456362D01*
X251665Y456365D01*
X250797Y456267D01*
X250757Y456252D01*
X250728Y456251D01*
X249903Y455963D01*
X249868Y455939D01*
X249839Y455932D01*
X249100Y455467D01*
X249071Y455437D01*
X249044Y455423D01*
X248427Y454806D01*
X248411Y454778D01*
X248407Y454775D01*
X248405Y454769D01*
X248383Y454750D01*
X247918Y454011D01*
X247905Y453971D01*
X247887Y453947D01*
X247599Y453122D01*
X247595Y453080D01*
X247583Y453053D01*
X247485Y452185D01*
X247488Y452165D01*
X247483Y452150D01*
X247483Y438368D01*
X247407Y437687D01*
X247186Y437056D01*
X247174Y437037D01*
X247173Y437037D01*
X246831Y436491D01*
X246359Y436019D01*
X245794Y435664D01*
X245163Y435444D01*
X244817Y435404D01*
X244817Y453635D01*
X244925Y454729D01*
X245239Y455767D01*
X245751Y456723D01*
X246439Y457562D01*
X247277Y458249D01*
X248233Y458761D01*
X249271Y459075D01*
X250366Y459183D01*
X255750Y459183D01*
X255761Y459186D01*
X255773Y459184D01*
X255837Y459206D01*
X255903Y459223D01*
X255911Y459231D01*
X255922Y459234D01*
X255968Y459284D01*
X256018Y459331D01*
X256021Y459342D01*
X256029Y459351D01*
X256045Y459416D01*
X256066Y459481D01*
X256064Y459493D01*
X256067Y459504D01*
X256049Y459569D01*
X256036Y459636D01*
X256029Y459645D01*
X256025Y459656D01*
X255998Y459682D01*
X255935Y459757D01*
X255905Y459767D01*
X255883Y459788D01*
X253933Y460688D01*
X253903Y460693D01*
X253883Y460706D01*
X252233Y461156D01*
X252215Y461156D01*
X252202Y461162D01*
X250402Y461462D01*
X250372Y461460D01*
X250350Y461467D01*
X248250Y461467D01*
X248226Y461461D01*
X248208Y461464D01*
X245958Y461164D01*
X245926Y461151D01*
X245900Y461151D01*
X243300Y460284D01*
X242050Y460701D01*
X242040Y460701D01*
X242033Y460706D01*
X240383Y461156D01*
X240349Y461156D01*
X240326Y461166D01*
X238526Y461316D01*
X236879Y461465D01*
X236845Y461460D01*
X236821Y461465D01*
X235171Y461315D01*
X235156Y461310D01*
X235143Y461312D01*
X233493Y461012D01*
X233474Y461003D01*
X233457Y461003D01*
X231507Y460403D01*
X231488Y460391D01*
X231471Y460389D01*
X230121Y459789D01*
X230110Y459780D01*
X230098Y459778D01*
X228616Y458970D01*
X227876Y459464D01*
X227854Y459471D01*
X227842Y459483D01*
X226342Y460233D01*
X226329Y460236D01*
X226322Y460242D01*
X224522Y460992D01*
X224485Y460998D01*
X224462Y461011D01*
X222212Y461461D01*
X222190Y461459D01*
X222174Y461466D01*
X220224Y461616D01*
X220211Y461613D01*
X220200Y461617D01*
X217950Y461617D01*
X217905Y461605D01*
X217873Y461607D01*
X214873Y460857D01*
X214844Y460842D01*
X214820Y460839D01*
X211820Y459489D01*
X211785Y459461D01*
X211756Y459450D01*
X209056Y457350D01*
X209042Y457332D01*
X209026Y457324D01*
X207858Y456156D01*
X206248Y455278D01*
X206225Y455256D01*
X206202Y455247D01*
X204702Y454047D01*
X204683Y454022D01*
X204663Y454010D01*
X203463Y452660D01*
X203458Y452650D01*
X203450Y452644D01*
X202400Y451294D01*
X202378Y451245D01*
X202356Y451218D01*
X201756Y449718D01*
X201752Y449687D01*
X201740Y449666D01*
X201290Y447566D01*
X201291Y447543D01*
X201284Y447520D01*
X201294Y447465D01*
X201297Y447409D01*
X201309Y447388D01*
X201314Y447365D01*
X201349Y447322D01*
X201379Y447274D01*
X201399Y447262D01*
X201414Y447243D01*
X201467Y447223D01*
X201515Y447195D01*
X201539Y447194D01*
X201561Y447186D01*
X201617Y447193D01*
X201673Y447192D01*
X201694Y447203D01*
X201718Y447206D01*
X201749Y447232D01*
X201813Y447266D01*
X201834Y447303D01*
X201867Y447330D01*
X202157Y447785D01*
X202917Y448980D01*
X202918Y448981D01*
X202919Y448982D01*
X202962Y449052D01*
X203160Y449368D01*
X203160Y449369D01*
X203358Y449685D01*
X203556Y450002D01*
X203644Y450142D01*
X204803Y451157D01*
X206262Y452324D01*
X208771Y453357D01*
X208795Y453375D01*
X208805Y453378D01*
X208809Y453382D01*
X208831Y453390D01*
X208853Y453419D01*
X208897Y453452D01*
X208907Y453475D01*
X208920Y453486D01*
X208931Y453521D01*
X208949Y453545D01*
X209825Y456027D01*
X211696Y457898D01*
X213140Y458765D01*
X215759Y459783D01*
X218358Y459783D01*
X219942Y459351D01*
X221546Y458622D01*
X222840Y457759D01*
X223999Y456456D01*
X224570Y455598D01*
X225009Y454575D01*
X225010Y454573D01*
X225011Y454571D01*
X225595Y453256D01*
X225884Y451668D01*
X226033Y443294D01*
X226039Y443276D01*
X226036Y443261D01*
X226186Y442061D01*
X226211Y441998D01*
X226217Y441958D01*
X226817Y440758D01*
X226920Y440639D01*
X226923Y440638D01*
X226924Y440636D01*
X228258Y439747D01*
X229294Y438860D01*
X229382Y438816D01*
X229413Y438795D01*
X230463Y438495D01*
X230516Y438494D01*
X230550Y438483D01*
X232350Y438483D01*
X232427Y438503D01*
X232468Y438506D01*
X233968Y439106D01*
X233986Y439119D01*
X234005Y439124D01*
X234022Y439140D01*
X234040Y439147D01*
X235240Y440047D01*
X235274Y440089D01*
X235303Y440110D01*
X236203Y441310D01*
X236225Y441363D01*
X236248Y441392D01*
X236848Y443042D01*
X236854Y443107D01*
X236867Y443143D01*
X237017Y450343D01*
X237016Y450347D01*
X237017Y450350D01*
X237017Y451035D01*
X237410Y451952D01*
X238094Y452499D01*
X238606Y452883D01*
X239983Y452883D01*
X239983Y442266D01*
X239842Y440849D01*
X238678Y438812D01*
X238558Y438620D01*
X238360Y438304D01*
X238162Y437987D01*
X237964Y437670D01*
X237946Y437641D01*
X236661Y436214D01*
X234646Y435350D01*
X232477Y434772D01*
X230010Y435062D01*
X228420Y435496D01*
X227111Y436223D01*
X225948Y436949D01*
X224934Y437964D01*
X224211Y438831D01*
X223644Y439824D01*
X223359Y440820D01*
X223212Y441702D01*
X223194Y441743D01*
X223186Y441786D01*
X223163Y441814D01*
X223148Y441846D01*
X223113Y441873D01*
X223085Y441907D01*
X223056Y441917D01*
X223023Y441942D01*
X222938Y441954D01*
X222900Y441967D01*
X218850Y441967D01*
X218776Y441948D01*
X218702Y441930D01*
X218700Y441928D01*
X218697Y441927D01*
X218582Y441819D01*
X218577Y441802D01*
X218567Y441792D01*
X217970Y440597D01*
X217251Y439304D01*
X216252Y438447D01*
X215071Y437561D01*
X213901Y436830D01*
X212596Y436251D01*
X210861Y435817D01*
X208500Y435817D01*
X208465Y435808D01*
X208429Y435809D01*
X208390Y435788D01*
X208347Y435777D01*
X208321Y435753D01*
X208289Y435736D01*
X208264Y435699D01*
X208232Y435669D01*
X208221Y435635D01*
X208201Y435605D01*
X208197Y435561D01*
X208184Y435519D01*
X208191Y435483D01*
X208188Y435448D01*
X208206Y435407D01*
X208214Y435364D01*
X208237Y435336D01*
X208252Y435303D01*
X208281Y435284D01*
X208315Y435243D01*
X208368Y435226D01*
X208413Y435195D01*
X210513Y434595D01*
X210536Y434595D01*
X210552Y434587D01*
X212502Y434287D01*
X212517Y434288D01*
X212527Y434284D01*
X214627Y434134D01*
X214667Y434141D01*
X214695Y434136D01*
X216795Y434436D01*
X216818Y434446D01*
X216837Y434445D01*
X218937Y435045D01*
X218944Y435049D01*
X218950Y435050D01*
X221200Y435800D01*
X221228Y435817D01*
X221252Y435822D01*
X222713Y436619D01*
X223447Y436007D01*
X223470Y435996D01*
X223482Y435981D01*
X224682Y435231D01*
X224699Y435226D01*
X224708Y435217D01*
X225908Y434617D01*
X225927Y434613D01*
X225939Y434603D01*
X227139Y434153D01*
X227212Y434146D01*
X227250Y434133D01*
X245100Y434133D01*
X245118Y434138D01*
X245132Y434135D01*
X246632Y434285D01*
X246682Y434303D01*
X246718Y434306D01*
X248218Y434906D01*
X248238Y434921D01*
X248257Y434925D01*
X249184Y435455D01*
X250378Y435057D01*
X251858Y434317D01*
X251899Y434308D01*
X251923Y434293D01*
X253723Y433843D01*
X253752Y433843D01*
X253771Y433835D01*
X255404Y433686D01*
X256888Y433389D01*
X256925Y433391D01*
X256950Y433383D01*
X258600Y433383D01*
X258630Y433391D01*
G37*
G36*
X222518Y445101D02*
X222518Y445101D01*
X222586Y445114D01*
X222594Y445120D01*
X222603Y445123D01*
X222654Y445171D01*
X222707Y445215D01*
X222710Y445224D01*
X222718Y445231D01*
X222766Y445381D01*
X222764Y445392D01*
X222767Y445400D01*
X222767Y451400D01*
X222762Y451420D01*
X222765Y451435D01*
X222633Y452604D01*
X222618Y452643D01*
X222617Y452673D01*
X222229Y453783D01*
X222206Y453818D01*
X222198Y453846D01*
X221573Y454842D01*
X221542Y454871D01*
X221529Y454897D01*
X220697Y455729D01*
X220661Y455750D01*
X220642Y455773D01*
X219646Y456398D01*
X219606Y456411D01*
X219583Y456429D01*
X218473Y456817D01*
X218431Y456821D01*
X218404Y456833D01*
X217235Y456965D01*
X217194Y456959D01*
X217165Y456965D01*
X215996Y456833D01*
X215957Y456818D01*
X215927Y456817D01*
X214818Y456429D01*
X214782Y456406D01*
X214754Y456398D01*
X213758Y455773D01*
X213729Y455742D01*
X213703Y455729D01*
X212871Y454897D01*
X212850Y454861D01*
X212827Y454842D01*
X212773Y454755D01*
X212772Y454755D01*
X212574Y454438D01*
X212573Y454438D01*
X212375Y454121D01*
X212374Y454121D01*
X212202Y453846D01*
X212189Y453806D01*
X212187Y453805D01*
X212187Y453804D01*
X212171Y453783D01*
X211783Y452673D01*
X211779Y452631D01*
X211767Y452604D01*
X211635Y451435D01*
X211638Y451415D01*
X211633Y451400D01*
X211633Y450500D01*
X211638Y450480D01*
X211635Y450465D01*
X211763Y449330D01*
X211778Y449290D01*
X211779Y449261D01*
X212156Y448183D01*
X212180Y448147D01*
X212187Y448119D01*
X212794Y447152D01*
X212825Y447123D01*
X212839Y447096D01*
X213646Y446289D01*
X213683Y446267D01*
X213702Y446244D01*
X214669Y445637D01*
X214709Y445624D01*
X214733Y445606D01*
X215811Y445229D01*
X215853Y445225D01*
X215880Y445213D01*
X217015Y445085D01*
X217035Y445088D01*
X217050Y445083D01*
X222450Y445083D01*
X222518Y445101D01*
G37*
G36*
X210197Y438347D02*
X210197Y438347D01*
X210237Y438345D01*
X212337Y438945D01*
X212473Y439025D01*
X212474Y439026D01*
X214124Y440676D01*
X214139Y440701D01*
X214156Y440714D01*
X215356Y442364D01*
X215383Y442432D01*
X215413Y442500D01*
X215412Y442506D01*
X215414Y442511D01*
X215405Y442584D01*
X215398Y442658D01*
X215395Y442662D01*
X215394Y442667D01*
X215350Y442727D01*
X215309Y442788D01*
X215305Y442790D01*
X215301Y442795D01*
X215158Y442861D01*
X215142Y442860D01*
X215131Y442865D01*
X213933Y442983D01*
X212811Y443324D01*
X211777Y443876D01*
X210870Y444620D01*
X210126Y445527D01*
X209574Y446561D01*
X209233Y447683D01*
X209117Y448866D01*
X209117Y449600D01*
X209109Y449629D01*
X209111Y449659D01*
X209090Y449704D01*
X209077Y449753D01*
X209057Y449775D01*
X209044Y449802D01*
X209004Y449831D01*
X208969Y449868D01*
X208941Y449877D01*
X208917Y449895D01*
X208878Y449897D01*
X208819Y449916D01*
X208760Y449905D01*
X208723Y449907D01*
X207523Y449607D01*
X207473Y449580D01*
X207437Y449572D01*
X205937Y448672D01*
X205886Y448620D01*
X205853Y448598D01*
X204653Y447098D01*
X204638Y447066D01*
X204626Y447055D01*
X204620Y447035D01*
X204606Y447018D01*
X204006Y445518D01*
X203998Y445459D01*
X203984Y445424D01*
X203834Y443474D01*
X203848Y443398D01*
X203847Y443357D01*
X204447Y441407D01*
X204459Y441387D01*
X204464Y441364D01*
X204499Y441322D01*
X204515Y441288D01*
X205865Y439788D01*
X205904Y439762D01*
X205924Y439736D01*
X207724Y438536D01*
X207873Y438484D01*
X207877Y438485D01*
X207879Y438484D01*
X210129Y438334D01*
X210197Y438347D01*
G37*
D10*
X253774Y51794D02*
X255016Y53346D01*
X249428Y53346D01*
X249428Y51794D02*
X249428Y54899D01*
X252532Y57281D02*
X252532Y59143D01*
X252533Y59143D02*
X252531Y59213D01*
X252525Y59282D01*
X252515Y59351D01*
X252502Y59419D01*
X252484Y59487D01*
X252463Y59553D01*
X252438Y59618D01*
X252410Y59682D01*
X252378Y59744D01*
X252343Y59804D01*
X252304Y59862D01*
X252262Y59917D01*
X252217Y59971D01*
X252169Y60021D01*
X252119Y60069D01*
X252065Y60114D01*
X252010Y60156D01*
X251952Y60195D01*
X251892Y60230D01*
X251830Y60262D01*
X251766Y60290D01*
X251701Y60315D01*
X251635Y60336D01*
X251567Y60354D01*
X251499Y60367D01*
X251430Y60377D01*
X251361Y60383D01*
X251291Y60385D01*
X250980Y60385D01*
X250903Y60383D01*
X250825Y60377D01*
X250749Y60368D01*
X250672Y60354D01*
X250597Y60337D01*
X250523Y60316D01*
X250449Y60291D01*
X250377Y60263D01*
X250307Y60231D01*
X250238Y60196D01*
X250171Y60157D01*
X250106Y60115D01*
X250043Y60070D01*
X249982Y60022D01*
X249924Y59971D01*
X249869Y59917D01*
X249816Y59860D01*
X249767Y59801D01*
X249720Y59739D01*
X249676Y59675D01*
X249636Y59609D01*
X249599Y59541D01*
X249565Y59471D01*
X249535Y59400D01*
X249509Y59327D01*
X249486Y59253D01*
X249467Y59178D01*
X249452Y59103D01*
X249440Y59026D01*
X249432Y58949D01*
X249428Y58872D01*
X249428Y58794D01*
X249432Y58717D01*
X249440Y58640D01*
X249452Y58563D01*
X249467Y58488D01*
X249486Y58413D01*
X249509Y58339D01*
X249535Y58266D01*
X249565Y58195D01*
X249599Y58125D01*
X249636Y58057D01*
X249676Y57991D01*
X249720Y57927D01*
X249767Y57865D01*
X249816Y57806D01*
X249869Y57749D01*
X249924Y57695D01*
X249982Y57644D01*
X250043Y57596D01*
X250106Y57551D01*
X250171Y57509D01*
X250238Y57470D01*
X250307Y57435D01*
X250377Y57403D01*
X250449Y57375D01*
X250523Y57350D01*
X250597Y57329D01*
X250672Y57312D01*
X250749Y57298D01*
X250825Y57289D01*
X250903Y57283D01*
X250980Y57281D01*
X252532Y57281D01*
X252532Y57280D02*
X252630Y57282D01*
X252727Y57288D01*
X252824Y57297D01*
X252921Y57311D01*
X253017Y57328D01*
X253112Y57349D01*
X253206Y57373D01*
X253300Y57402D01*
X253392Y57434D01*
X253483Y57469D01*
X253572Y57508D01*
X253660Y57551D01*
X253746Y57597D01*
X253830Y57646D01*
X253912Y57699D01*
X253992Y57754D01*
X254070Y57813D01*
X254145Y57875D01*
X254218Y57940D01*
X254288Y58008D01*
X254356Y58078D01*
X254421Y58151D01*
X254483Y58226D01*
X254542Y58304D01*
X254597Y58384D01*
X254650Y58466D01*
X254699Y58550D01*
X254745Y58636D01*
X254788Y58724D01*
X254827Y58813D01*
X254862Y58904D01*
X254894Y58996D01*
X254923Y59090D01*
X254947Y59184D01*
X254968Y59279D01*
X254985Y59375D01*
X254999Y59472D01*
X255008Y59569D01*
X255014Y59666D01*
X255016Y59764D01*
X254240Y63233D02*
X254122Y63177D01*
X254002Y63125D01*
X253881Y63076D01*
X253759Y63031D01*
X253635Y62989D01*
X253510Y62951D01*
X253384Y62916D01*
X253257Y62885D01*
X253130Y62857D01*
X253002Y62833D01*
X252873Y62813D01*
X252743Y62797D01*
X252613Y62784D01*
X252483Y62774D01*
X252353Y62769D01*
X252222Y62767D01*
X254240Y63232D02*
X254300Y63255D01*
X254360Y63281D01*
X254417Y63310D01*
X254473Y63343D01*
X254527Y63379D01*
X254579Y63417D01*
X254629Y63459D01*
X254676Y63503D01*
X254721Y63550D01*
X254763Y63600D01*
X254802Y63651D01*
X254838Y63705D01*
X254871Y63761D01*
X254901Y63818D01*
X254928Y63877D01*
X254951Y63938D01*
X254971Y63999D01*
X254987Y64062D01*
X255000Y64126D01*
X255009Y64190D01*
X255014Y64254D01*
X255016Y64319D01*
X255014Y64384D01*
X255009Y64448D01*
X255000Y64512D01*
X254987Y64576D01*
X254971Y64639D01*
X254951Y64700D01*
X254928Y64761D01*
X254901Y64820D01*
X254871Y64877D01*
X254838Y64933D01*
X254802Y64987D01*
X254763Y65038D01*
X254721Y65088D01*
X254676Y65135D01*
X254629Y65179D01*
X254579Y65221D01*
X254527Y65259D01*
X254473Y65295D01*
X254417Y65328D01*
X254360Y65357D01*
X254300Y65383D01*
X254240Y65406D01*
X254122Y65462D01*
X254002Y65514D01*
X253881Y65563D01*
X253759Y65608D01*
X253635Y65650D01*
X253510Y65688D01*
X253384Y65723D01*
X253258Y65754D01*
X253130Y65782D01*
X253002Y65806D01*
X252873Y65826D01*
X252743Y65842D01*
X252613Y65855D01*
X252483Y65865D01*
X252353Y65870D01*
X252222Y65872D01*
X252222Y62767D02*
X252091Y62769D01*
X251961Y62774D01*
X251831Y62784D01*
X251701Y62797D01*
X251571Y62813D01*
X251442Y62833D01*
X251314Y62857D01*
X251187Y62885D01*
X251060Y62916D01*
X250934Y62951D01*
X250809Y62989D01*
X250685Y63031D01*
X250563Y63076D01*
X250442Y63125D01*
X250322Y63177D01*
X250204Y63233D01*
X250204Y63232D02*
X250144Y63255D01*
X250084Y63281D01*
X250027Y63310D01*
X249971Y63343D01*
X249917Y63379D01*
X249865Y63417D01*
X249815Y63459D01*
X249768Y63503D01*
X249723Y63550D01*
X249681Y63600D01*
X249642Y63651D01*
X249606Y63705D01*
X249573Y63761D01*
X249543Y63818D01*
X249516Y63877D01*
X249493Y63938D01*
X249473Y63999D01*
X249457Y64062D01*
X249444Y64126D01*
X249435Y64190D01*
X249430Y64254D01*
X249428Y64319D01*
X250204Y65405D02*
X250322Y65461D01*
X250442Y65513D01*
X250563Y65562D01*
X250685Y65607D01*
X250809Y65649D01*
X250934Y65687D01*
X251060Y65722D01*
X251186Y65753D01*
X251314Y65781D01*
X251442Y65805D01*
X251571Y65825D01*
X251701Y65841D01*
X251831Y65854D01*
X251961Y65864D01*
X252091Y65869D01*
X252222Y65871D01*
X250204Y65406D02*
X250144Y65383D01*
X250084Y65357D01*
X250027Y65328D01*
X249971Y65295D01*
X249917Y65259D01*
X249865Y65221D01*
X249815Y65179D01*
X249768Y65135D01*
X249723Y65088D01*
X249681Y65038D01*
X249642Y64987D01*
X249606Y64933D01*
X249573Y64877D01*
X249543Y64820D01*
X249516Y64761D01*
X249493Y64700D01*
X249473Y64639D01*
X249457Y64576D01*
X249444Y64512D01*
X249435Y64448D01*
X249430Y64384D01*
X249428Y64319D01*
X250670Y63077D02*
X253774Y65561D01*
X245872Y56970D02*
X240284Y58833D01*
X245872Y60695D01*
X222560Y54533D02*
X222560Y53602D01*
X222560Y54533D02*
X219456Y54533D01*
X219456Y52670D01*
X219458Y52600D01*
X219464Y52531D01*
X219474Y52462D01*
X219487Y52394D01*
X219505Y52326D01*
X219526Y52260D01*
X219551Y52195D01*
X219579Y52131D01*
X219611Y52069D01*
X219646Y52009D01*
X219685Y51951D01*
X219727Y51896D01*
X219772Y51842D01*
X219820Y51792D01*
X219870Y51744D01*
X219924Y51699D01*
X219979Y51657D01*
X220037Y51618D01*
X220097Y51583D01*
X220159Y51551D01*
X220223Y51523D01*
X220288Y51498D01*
X220354Y51477D01*
X220422Y51459D01*
X220490Y51446D01*
X220559Y51436D01*
X220628Y51430D01*
X220698Y51428D01*
X223802Y51428D01*
X223872Y51430D01*
X223941Y51436D01*
X224010Y51446D01*
X224078Y51459D01*
X224146Y51477D01*
X224212Y51498D01*
X224277Y51523D01*
X224341Y51551D01*
X224403Y51583D01*
X224463Y51618D01*
X224521Y51657D01*
X224576Y51699D01*
X224630Y51744D01*
X224680Y51792D01*
X224728Y51842D01*
X224773Y51896D01*
X224815Y51951D01*
X224854Y52009D01*
X224889Y52069D01*
X224921Y52131D01*
X224949Y52195D01*
X224974Y52260D01*
X224995Y52326D01*
X225013Y52394D01*
X225026Y52462D01*
X225036Y52531D01*
X225042Y52600D01*
X225044Y52670D01*
X225044Y54533D01*
X225044Y57281D02*
X219456Y57281D01*
X219456Y60385D02*
X225044Y57281D01*
X225044Y60385D02*
X219456Y60385D01*
X219456Y63133D02*
X225044Y63133D01*
X225044Y64685D01*
X225042Y64761D01*
X225037Y64837D01*
X225027Y64913D01*
X225014Y64988D01*
X224997Y65062D01*
X224977Y65136D01*
X224953Y65208D01*
X224926Y65279D01*
X224895Y65349D01*
X224861Y65417D01*
X224823Y65483D01*
X224782Y65547D01*
X224739Y65610D01*
X224692Y65670D01*
X224642Y65727D01*
X224589Y65782D01*
X224534Y65835D01*
X224477Y65885D01*
X224417Y65932D01*
X224354Y65975D01*
X224290Y66016D01*
X224224Y66054D01*
X224156Y66088D01*
X224086Y66119D01*
X224015Y66146D01*
X223942Y66170D01*
X223869Y66190D01*
X223795Y66207D01*
X223720Y66220D01*
X223644Y66230D01*
X223568Y66235D01*
X223492Y66237D01*
X221008Y66237D01*
X220929Y66235D01*
X220851Y66229D01*
X220773Y66219D01*
X220696Y66205D01*
X220619Y66187D01*
X220543Y66166D01*
X220469Y66140D01*
X220396Y66111D01*
X220325Y66078D01*
X220255Y66042D01*
X220187Y66002D01*
X220121Y65959D01*
X220058Y65912D01*
X219997Y65863D01*
X219939Y65810D01*
X219883Y65754D01*
X219830Y65696D01*
X219781Y65635D01*
X219734Y65572D01*
X219691Y65506D01*
X219651Y65438D01*
X219615Y65369D01*
X219582Y65297D01*
X219553Y65224D01*
X219527Y65150D01*
X219506Y65074D01*
X219488Y64997D01*
X219474Y64920D01*
X219464Y64842D01*
X219458Y64764D01*
X219456Y64685D01*
X219456Y63133D01*
D11*
X234950Y47625D02*
X234950Y101600D01*
X234950Y47625D02*
X260350Y47625D01*
X260350Y101600D01*
X209550Y101600D01*
X209550Y47625D01*
X234950Y47625D01*
D12*
X266192Y60767D02*
X273558Y60767D01*
X270284Y60767D02*
X270284Y64859D01*
X273558Y64859D02*
X266192Y64859D01*
X266192Y70372D02*
X273558Y67917D01*
X273558Y72827D02*
X266192Y70372D01*
X266192Y80126D02*
X273558Y80126D01*
X266192Y79307D02*
X266192Y80944D01*
X273558Y80944D02*
X273558Y79307D01*
X273558Y84175D02*
X266192Y84175D01*
X266192Y88268D02*
X273558Y84175D01*
X273558Y88268D02*
X266192Y88268D01*
D11*
X177800Y101600D02*
X152400Y101600D01*
X127000Y101600D01*
X101600Y101600D01*
X76200Y101600D01*
X50800Y101600D01*
X50800Y47625D01*
X76200Y47625D01*
X101600Y47625D01*
X127000Y47625D01*
X152400Y47625D01*
X177800Y47625D01*
X177800Y101600D01*
D10*
X63810Y54533D02*
X63810Y53602D01*
X63810Y54533D02*
X60706Y54533D01*
X60706Y52670D01*
X60708Y52600D01*
X60714Y52531D01*
X60724Y52462D01*
X60737Y52394D01*
X60755Y52326D01*
X60776Y52260D01*
X60801Y52195D01*
X60829Y52131D01*
X60861Y52069D01*
X60896Y52009D01*
X60935Y51951D01*
X60977Y51896D01*
X61022Y51842D01*
X61070Y51792D01*
X61120Y51744D01*
X61174Y51699D01*
X61229Y51657D01*
X61287Y51618D01*
X61347Y51583D01*
X61409Y51551D01*
X61473Y51523D01*
X61538Y51498D01*
X61604Y51477D01*
X61672Y51459D01*
X61740Y51446D01*
X61809Y51436D01*
X61878Y51430D01*
X61948Y51428D01*
X65052Y51428D01*
X65122Y51430D01*
X65191Y51436D01*
X65260Y51446D01*
X65328Y51459D01*
X65396Y51477D01*
X65462Y51498D01*
X65527Y51523D01*
X65591Y51551D01*
X65653Y51583D01*
X65713Y51618D01*
X65771Y51657D01*
X65826Y51699D01*
X65880Y51744D01*
X65930Y51792D01*
X65978Y51842D01*
X66023Y51896D01*
X66065Y51951D01*
X66104Y52009D01*
X66139Y52069D01*
X66171Y52131D01*
X66199Y52195D01*
X66224Y52260D01*
X66245Y52326D01*
X66263Y52394D01*
X66276Y52462D01*
X66286Y52531D01*
X66292Y52600D01*
X66294Y52670D01*
X66294Y54533D01*
X66294Y57281D02*
X60706Y57281D01*
X60706Y60385D02*
X66294Y57281D01*
X66294Y60385D02*
X60706Y60385D01*
X60706Y63133D02*
X66294Y63133D01*
X66294Y64685D01*
X66292Y64761D01*
X66287Y64837D01*
X66277Y64913D01*
X66264Y64988D01*
X66247Y65062D01*
X66227Y65136D01*
X66203Y65208D01*
X66176Y65279D01*
X66145Y65349D01*
X66111Y65417D01*
X66073Y65483D01*
X66032Y65547D01*
X65989Y65610D01*
X65942Y65670D01*
X65892Y65727D01*
X65839Y65782D01*
X65784Y65835D01*
X65727Y65885D01*
X65667Y65932D01*
X65604Y65975D01*
X65540Y66016D01*
X65474Y66054D01*
X65406Y66088D01*
X65336Y66119D01*
X65265Y66146D01*
X65192Y66170D01*
X65119Y66190D01*
X65045Y66207D01*
X64970Y66220D01*
X64894Y66230D01*
X64818Y66235D01*
X64742Y66237D01*
X62258Y66237D01*
X62179Y66235D01*
X62101Y66229D01*
X62023Y66219D01*
X61946Y66205D01*
X61869Y66187D01*
X61793Y66166D01*
X61719Y66140D01*
X61646Y66111D01*
X61575Y66078D01*
X61505Y66042D01*
X61437Y66002D01*
X61371Y65959D01*
X61308Y65912D01*
X61247Y65863D01*
X61189Y65810D01*
X61133Y65754D01*
X61080Y65696D01*
X61031Y65635D01*
X60984Y65572D01*
X60941Y65506D01*
X60901Y65438D01*
X60865Y65369D01*
X60832Y65297D01*
X60803Y65224D01*
X60777Y65150D01*
X60756Y65074D01*
X60738Y64997D01*
X60724Y64920D01*
X60714Y64842D01*
X60708Y64764D01*
X60706Y64685D01*
X60706Y63133D01*
X86106Y51886D02*
X91694Y51886D01*
X91694Y53438D01*
X91692Y53514D01*
X91687Y53590D01*
X91677Y53666D01*
X91664Y53741D01*
X91647Y53815D01*
X91627Y53889D01*
X91603Y53961D01*
X91576Y54032D01*
X91545Y54102D01*
X91511Y54170D01*
X91473Y54236D01*
X91432Y54300D01*
X91389Y54363D01*
X91342Y54423D01*
X91292Y54480D01*
X91239Y54535D01*
X91184Y54588D01*
X91127Y54638D01*
X91067Y54685D01*
X91004Y54728D01*
X90940Y54769D01*
X90874Y54807D01*
X90806Y54841D01*
X90736Y54872D01*
X90665Y54899D01*
X90592Y54923D01*
X90519Y54943D01*
X90445Y54960D01*
X90370Y54973D01*
X90294Y54983D01*
X90218Y54988D01*
X90142Y54990D01*
X87658Y54990D01*
X87579Y54988D01*
X87501Y54982D01*
X87423Y54972D01*
X87346Y54958D01*
X87269Y54940D01*
X87193Y54919D01*
X87119Y54893D01*
X87046Y54864D01*
X86975Y54831D01*
X86905Y54795D01*
X86837Y54755D01*
X86771Y54712D01*
X86708Y54665D01*
X86647Y54616D01*
X86589Y54563D01*
X86533Y54507D01*
X86480Y54449D01*
X86431Y54388D01*
X86384Y54325D01*
X86341Y54259D01*
X86301Y54191D01*
X86265Y54122D01*
X86232Y54050D01*
X86203Y53977D01*
X86177Y53903D01*
X86156Y53827D01*
X86138Y53750D01*
X86124Y53673D01*
X86114Y53595D01*
X86108Y53517D01*
X86106Y53438D01*
X86106Y51886D01*
X86106Y57244D02*
X91694Y59107D01*
X86106Y60970D01*
X87503Y60504D02*
X87503Y57710D01*
X86106Y64228D02*
X91694Y64228D01*
X91694Y65780D02*
X91694Y62675D01*
X111506Y54960D02*
X111506Y53718D01*
X111508Y53648D01*
X111514Y53579D01*
X111524Y53510D01*
X111537Y53442D01*
X111555Y53374D01*
X111576Y53308D01*
X111601Y53243D01*
X111629Y53179D01*
X111661Y53117D01*
X111696Y53057D01*
X111735Y52999D01*
X111777Y52944D01*
X111822Y52890D01*
X111870Y52840D01*
X111920Y52792D01*
X111974Y52747D01*
X112029Y52705D01*
X112087Y52666D01*
X112147Y52631D01*
X112209Y52599D01*
X112273Y52571D01*
X112338Y52546D01*
X112404Y52525D01*
X112472Y52507D01*
X112540Y52494D01*
X112609Y52484D01*
X112678Y52478D01*
X112748Y52476D01*
X115852Y52476D01*
X115922Y52478D01*
X115991Y52484D01*
X116060Y52494D01*
X116128Y52507D01*
X116196Y52525D01*
X116262Y52546D01*
X116327Y52571D01*
X116391Y52599D01*
X116453Y52631D01*
X116513Y52666D01*
X116571Y52705D01*
X116626Y52747D01*
X116680Y52792D01*
X116730Y52840D01*
X116778Y52890D01*
X116823Y52944D01*
X116865Y52999D01*
X116904Y53057D01*
X116939Y53117D01*
X116971Y53179D01*
X116999Y53243D01*
X117024Y53308D01*
X117045Y53374D01*
X117063Y53442D01*
X117076Y53510D01*
X117086Y53579D01*
X117092Y53648D01*
X117094Y53718D01*
X117094Y54960D01*
X117094Y57258D02*
X111506Y57258D01*
X111506Y59742D01*
X111506Y62085D02*
X117094Y62085D01*
X117094Y65189D02*
X113679Y62085D01*
X114921Y63327D02*
X111506Y65189D01*
X136906Y52440D02*
X142494Y52440D01*
X136906Y52440D02*
X136906Y54923D01*
X136906Y56690D02*
X142494Y58553D01*
X136906Y60416D01*
X138303Y59950D02*
X138303Y57156D01*
X136906Y63674D02*
X142494Y63674D01*
X142494Y65226D02*
X142494Y62121D01*
X162306Y56245D02*
X162306Y54382D01*
X162306Y56245D02*
X162308Y56315D01*
X162314Y56384D01*
X162324Y56453D01*
X162337Y56521D01*
X162355Y56589D01*
X162376Y56655D01*
X162401Y56720D01*
X162429Y56784D01*
X162461Y56846D01*
X162496Y56906D01*
X162535Y56964D01*
X162577Y57019D01*
X162622Y57073D01*
X162670Y57123D01*
X162720Y57171D01*
X162774Y57216D01*
X162829Y57258D01*
X162887Y57297D01*
X162947Y57332D01*
X163009Y57364D01*
X163073Y57392D01*
X163138Y57417D01*
X163204Y57438D01*
X163272Y57456D01*
X163340Y57469D01*
X163409Y57479D01*
X163478Y57485D01*
X163548Y57487D01*
X164169Y57487D01*
X164239Y57485D01*
X164308Y57479D01*
X164377Y57469D01*
X164445Y57456D01*
X164513Y57438D01*
X164579Y57417D01*
X164644Y57392D01*
X164708Y57364D01*
X164770Y57332D01*
X164830Y57297D01*
X164888Y57258D01*
X164943Y57216D01*
X164997Y57171D01*
X165047Y57123D01*
X165095Y57073D01*
X165140Y57019D01*
X165182Y56964D01*
X165221Y56906D01*
X165256Y56846D01*
X165288Y56784D01*
X165316Y56720D01*
X165341Y56655D01*
X165362Y56589D01*
X165380Y56521D01*
X165393Y56453D01*
X165403Y56384D01*
X165409Y56315D01*
X165411Y56245D01*
X165410Y56245D02*
X165410Y54382D01*
X167894Y54382D01*
X167894Y57487D01*
X167894Y59558D02*
X162306Y61421D01*
X167894Y63283D01*
D11*
X76200Y47625D02*
X76200Y101600D01*
X101600Y101600D02*
X101600Y47625D01*
X127000Y47625D02*
X127000Y101600D01*
X152400Y101600D02*
X152400Y47625D01*
D12*
X194501Y61755D02*
X201867Y61755D01*
X201867Y63801D01*
X201866Y63801D02*
X201864Y63890D01*
X201858Y63979D01*
X201848Y64068D01*
X201835Y64156D01*
X201818Y64244D01*
X201796Y64331D01*
X201771Y64416D01*
X201743Y64501D01*
X201710Y64584D01*
X201674Y64666D01*
X201635Y64746D01*
X201592Y64824D01*
X201546Y64900D01*
X201496Y64975D01*
X201443Y65047D01*
X201387Y65116D01*
X201328Y65183D01*
X201267Y65248D01*
X201202Y65309D01*
X201135Y65368D01*
X201066Y65424D01*
X200994Y65477D01*
X200919Y65527D01*
X200843Y65573D01*
X200765Y65616D01*
X200685Y65655D01*
X200603Y65691D01*
X200520Y65724D01*
X200435Y65752D01*
X200350Y65777D01*
X200263Y65799D01*
X200175Y65816D01*
X200087Y65829D01*
X199998Y65839D01*
X199909Y65845D01*
X199820Y65847D01*
X196547Y65847D01*
X196458Y65845D01*
X196369Y65839D01*
X196280Y65829D01*
X196192Y65816D01*
X196104Y65799D01*
X196017Y65777D01*
X195932Y65752D01*
X195847Y65724D01*
X195764Y65691D01*
X195682Y65655D01*
X195602Y65616D01*
X195524Y65573D01*
X195448Y65527D01*
X195373Y65477D01*
X195301Y65424D01*
X195232Y65368D01*
X195165Y65309D01*
X195100Y65248D01*
X195039Y65183D01*
X194980Y65116D01*
X194924Y65047D01*
X194871Y64975D01*
X194821Y64900D01*
X194775Y64824D01*
X194732Y64746D01*
X194693Y64666D01*
X194657Y64584D01*
X194624Y64501D01*
X194596Y64416D01*
X194571Y64331D01*
X194549Y64244D01*
X194532Y64156D01*
X194519Y64068D01*
X194509Y63979D01*
X194503Y63890D01*
X194501Y63801D01*
X194501Y61755D01*
X194501Y68905D02*
X201867Y71360D01*
X194501Y73815D01*
X196342Y73201D02*
X196342Y69518D01*
X194501Y78187D02*
X201867Y78187D01*
X201867Y76141D02*
X201867Y80234D01*
X201867Y85015D02*
X194501Y82560D01*
X194501Y87470D02*
X201867Y85015D01*
X196342Y86856D02*
X196342Y83173D01*
X189675Y70951D02*
X182309Y70951D01*
X182309Y71769D02*
X182309Y70132D01*
X189675Y70132D02*
X189675Y71769D01*
X189675Y75001D02*
X182309Y75001D01*
X182309Y79093D02*
X189675Y75001D01*
X189675Y79093D02*
X182309Y79093D01*
D11*
X177800Y101600D02*
X204788Y101600D01*
X204788Y47625D01*
X177800Y47625D01*
X260350Y101600D02*
X279400Y101600D01*
X279400Y47625D01*
X260350Y47625D01*
D13*
X275494Y464158D02*
X275494Y475842D01*
X269003Y464158D01*
X269003Y475842D01*
X263866Y471947D02*
X263866Y464158D01*
X264191Y475193D02*
X264191Y475842D01*
X263542Y475842D01*
X263542Y475193D01*
X264191Y475193D01*
X254412Y471947D02*
X259605Y464158D01*
X254412Y464158D02*
X259605Y471947D01*
X250150Y471947D02*
X250150Y464158D01*
X250475Y475193D02*
X250475Y475842D01*
X249826Y475842D01*
X249826Y475193D01*
X250475Y475193D01*
X243560Y464158D02*
X240315Y464158D01*
X243560Y464158D02*
X243647Y464160D01*
X243735Y464166D01*
X243821Y464176D01*
X243908Y464189D01*
X243993Y464207D01*
X244078Y464228D01*
X244162Y464253D01*
X244244Y464282D01*
X244325Y464315D01*
X244405Y464351D01*
X244483Y464390D01*
X244559Y464434D01*
X244633Y464480D01*
X244704Y464530D01*
X244774Y464583D01*
X244841Y464639D01*
X244905Y464698D01*
X244967Y464760D01*
X245026Y464824D01*
X245082Y464891D01*
X245135Y464961D01*
X245185Y465032D01*
X245231Y465106D01*
X245275Y465182D01*
X245314Y465260D01*
X245350Y465340D01*
X245383Y465421D01*
X245412Y465503D01*
X245437Y465587D01*
X245458Y465672D01*
X245476Y465757D01*
X245489Y465844D01*
X245499Y465930D01*
X245505Y466018D01*
X245507Y466105D01*
X245508Y466105D02*
X245508Y469351D01*
X245507Y469351D02*
X245505Y469452D01*
X245499Y469552D01*
X245489Y469652D01*
X245476Y469752D01*
X245458Y469851D01*
X245437Y469950D01*
X245412Y470047D01*
X245383Y470144D01*
X245350Y470239D01*
X245314Y470333D01*
X245274Y470425D01*
X245231Y470516D01*
X245184Y470605D01*
X245134Y470692D01*
X245080Y470778D01*
X245023Y470861D01*
X244963Y470941D01*
X244900Y471020D01*
X244833Y471096D01*
X244764Y471169D01*
X244692Y471239D01*
X244618Y471307D01*
X244541Y471372D01*
X244461Y471433D01*
X244379Y471492D01*
X244295Y471547D01*
X244209Y471599D01*
X244121Y471648D01*
X244031Y471693D01*
X243939Y471735D01*
X243846Y471773D01*
X243751Y471807D01*
X243656Y471838D01*
X243559Y471865D01*
X243461Y471888D01*
X243362Y471908D01*
X243262Y471923D01*
X243162Y471935D01*
X243062Y471943D01*
X242961Y471947D01*
X242861Y471947D01*
X242760Y471943D01*
X242660Y471935D01*
X242560Y471923D01*
X242460Y471908D01*
X242361Y471888D01*
X242263Y471865D01*
X242166Y471838D01*
X242071Y471807D01*
X241976Y471773D01*
X241883Y471735D01*
X241791Y471693D01*
X241701Y471648D01*
X241613Y471599D01*
X241527Y471547D01*
X241443Y471492D01*
X241361Y471433D01*
X241281Y471372D01*
X241204Y471307D01*
X241130Y471239D01*
X241058Y471169D01*
X240989Y471096D01*
X240922Y471020D01*
X240859Y470941D01*
X240799Y470861D01*
X240742Y470778D01*
X240688Y470692D01*
X240638Y470605D01*
X240591Y470516D01*
X240548Y470425D01*
X240508Y470333D01*
X240472Y470239D01*
X240439Y470144D01*
X240410Y470047D01*
X240385Y469950D01*
X240364Y469851D01*
X240346Y469752D01*
X240333Y469652D01*
X240323Y469552D01*
X240317Y469452D01*
X240315Y469351D01*
X240315Y468053D01*
X245508Y468053D01*
X226830Y464158D02*
X224233Y464158D01*
X226830Y464158D02*
X226929Y464160D01*
X227029Y464166D01*
X227128Y464175D01*
X227226Y464188D01*
X227324Y464205D01*
X227422Y464226D01*
X227518Y464251D01*
X227613Y464279D01*
X227707Y464311D01*
X227800Y464346D01*
X227892Y464385D01*
X227982Y464428D01*
X228070Y464473D01*
X228157Y464523D01*
X228241Y464575D01*
X228324Y464631D01*
X228404Y464689D01*
X228482Y464751D01*
X228557Y464816D01*
X228630Y464884D01*
X228700Y464954D01*
X228768Y465027D01*
X228833Y465102D01*
X228895Y465180D01*
X228953Y465260D01*
X229009Y465343D01*
X229061Y465427D01*
X229111Y465514D01*
X229156Y465602D01*
X229199Y465692D01*
X229238Y465784D01*
X229273Y465877D01*
X229305Y465971D01*
X229333Y466066D01*
X229358Y466162D01*
X229379Y466260D01*
X229396Y466358D01*
X229409Y466456D01*
X229418Y466555D01*
X229424Y466655D01*
X229426Y466754D01*
X229426Y473246D01*
X229424Y473345D01*
X229418Y473445D01*
X229409Y473544D01*
X229396Y473642D01*
X229379Y473740D01*
X229358Y473838D01*
X229333Y473934D01*
X229305Y474029D01*
X229273Y474123D01*
X229238Y474216D01*
X229199Y474308D01*
X229156Y474398D01*
X229111Y474486D01*
X229061Y474573D01*
X229009Y474657D01*
X228953Y474740D01*
X228895Y474820D01*
X228833Y474898D01*
X228768Y474973D01*
X228700Y475046D01*
X228630Y475116D01*
X228557Y475184D01*
X228482Y475249D01*
X228404Y475311D01*
X228324Y475369D01*
X228241Y475425D01*
X228157Y475477D01*
X228070Y475527D01*
X227982Y475572D01*
X227892Y475615D01*
X227800Y475654D01*
X227707Y475689D01*
X227613Y475721D01*
X227518Y475749D01*
X227422Y475774D01*
X227324Y475795D01*
X227226Y475812D01*
X227128Y475825D01*
X227029Y475834D01*
X226929Y475840D01*
X226830Y475842D01*
X224233Y475842D01*
X219831Y475842D02*
X219831Y466105D01*
X219829Y466018D01*
X219823Y465930D01*
X219813Y465844D01*
X219800Y465757D01*
X219782Y465672D01*
X219761Y465587D01*
X219736Y465503D01*
X219707Y465421D01*
X219674Y465340D01*
X219638Y465260D01*
X219599Y465182D01*
X219555Y465106D01*
X219509Y465032D01*
X219459Y464961D01*
X219406Y464891D01*
X219350Y464824D01*
X219291Y464760D01*
X219229Y464698D01*
X219165Y464639D01*
X219098Y464583D01*
X219028Y464530D01*
X218957Y464480D01*
X218883Y464434D01*
X218807Y464390D01*
X218729Y464351D01*
X218649Y464315D01*
X218568Y464282D01*
X218486Y464253D01*
X218402Y464228D01*
X218317Y464207D01*
X218232Y464189D01*
X218145Y464176D01*
X218059Y464166D01*
X217971Y464160D01*
X217884Y464158D01*
X213885Y466754D02*
X213885Y469351D01*
X213884Y469351D02*
X213882Y469452D01*
X213876Y469552D01*
X213866Y469652D01*
X213853Y469752D01*
X213835Y469851D01*
X213814Y469950D01*
X213789Y470047D01*
X213760Y470144D01*
X213727Y470239D01*
X213691Y470333D01*
X213651Y470425D01*
X213608Y470516D01*
X213561Y470605D01*
X213511Y470692D01*
X213457Y470778D01*
X213400Y470861D01*
X213340Y470941D01*
X213277Y471020D01*
X213210Y471096D01*
X213141Y471169D01*
X213069Y471239D01*
X212995Y471307D01*
X212918Y471372D01*
X212838Y471433D01*
X212756Y471492D01*
X212672Y471547D01*
X212586Y471599D01*
X212498Y471648D01*
X212408Y471693D01*
X212316Y471735D01*
X212223Y471773D01*
X212128Y471807D01*
X212033Y471838D01*
X211936Y471865D01*
X211838Y471888D01*
X211739Y471908D01*
X211639Y471923D01*
X211539Y471935D01*
X211439Y471943D01*
X211338Y471947D01*
X211238Y471947D01*
X211137Y471943D01*
X211037Y471935D01*
X210937Y471923D01*
X210837Y471908D01*
X210738Y471888D01*
X210640Y471865D01*
X210543Y471838D01*
X210448Y471807D01*
X210353Y471773D01*
X210260Y471735D01*
X210168Y471693D01*
X210078Y471648D01*
X209990Y471599D01*
X209904Y471547D01*
X209820Y471492D01*
X209738Y471433D01*
X209658Y471372D01*
X209581Y471307D01*
X209507Y471239D01*
X209435Y471169D01*
X209366Y471096D01*
X209299Y471020D01*
X209236Y470941D01*
X209176Y470861D01*
X209119Y470778D01*
X209065Y470692D01*
X209015Y470605D01*
X208968Y470516D01*
X208925Y470425D01*
X208885Y470333D01*
X208849Y470239D01*
X208816Y470144D01*
X208787Y470047D01*
X208762Y469950D01*
X208741Y469851D01*
X208723Y469752D01*
X208710Y469652D01*
X208700Y469552D01*
X208694Y469452D01*
X208692Y469351D01*
X208692Y466754D01*
X208694Y466653D01*
X208700Y466553D01*
X208710Y466453D01*
X208723Y466353D01*
X208741Y466254D01*
X208762Y466155D01*
X208787Y466058D01*
X208816Y465961D01*
X208849Y465866D01*
X208885Y465772D01*
X208925Y465680D01*
X208968Y465589D01*
X209015Y465500D01*
X209065Y465413D01*
X209119Y465327D01*
X209176Y465244D01*
X209236Y465164D01*
X209299Y465085D01*
X209366Y465009D01*
X209435Y464936D01*
X209507Y464866D01*
X209581Y464798D01*
X209658Y464733D01*
X209738Y464672D01*
X209820Y464613D01*
X209904Y464558D01*
X209990Y464506D01*
X210078Y464457D01*
X210168Y464412D01*
X210260Y464370D01*
X210353Y464332D01*
X210448Y464298D01*
X210543Y464267D01*
X210640Y464240D01*
X210738Y464217D01*
X210837Y464197D01*
X210937Y464182D01*
X211037Y464170D01*
X211137Y464162D01*
X211238Y464158D01*
X211338Y464158D01*
X211439Y464162D01*
X211539Y464170D01*
X211639Y464182D01*
X211739Y464197D01*
X211838Y464217D01*
X211936Y464240D01*
X212033Y464267D01*
X212128Y464298D01*
X212223Y464332D01*
X212316Y464370D01*
X212408Y464412D01*
X212498Y464457D01*
X212586Y464506D01*
X212672Y464558D01*
X212756Y464613D01*
X212838Y464672D01*
X212918Y464733D01*
X212995Y464798D01*
X213069Y464866D01*
X213141Y464936D01*
X213210Y465009D01*
X213277Y465085D01*
X213340Y465164D01*
X213400Y465244D01*
X213457Y465327D01*
X213511Y465413D01*
X213561Y465500D01*
X213608Y465589D01*
X213651Y465680D01*
X213691Y465772D01*
X213727Y465866D01*
X213760Y465961D01*
X213789Y466058D01*
X213814Y466155D01*
X213835Y466254D01*
X213853Y466353D01*
X213866Y466453D01*
X213876Y466553D01*
X213882Y466653D01*
X213884Y466754D01*
X202018Y464158D02*
X199422Y464158D01*
X202018Y464158D02*
X202105Y464160D01*
X202193Y464166D01*
X202279Y464176D01*
X202366Y464189D01*
X202451Y464207D01*
X202536Y464228D01*
X202620Y464253D01*
X202702Y464282D01*
X202783Y464315D01*
X202863Y464351D01*
X202941Y464390D01*
X203017Y464434D01*
X203091Y464480D01*
X203162Y464530D01*
X203232Y464583D01*
X203299Y464639D01*
X203363Y464698D01*
X203425Y464760D01*
X203484Y464824D01*
X203540Y464891D01*
X203593Y464961D01*
X203643Y465032D01*
X203689Y465106D01*
X203733Y465182D01*
X203772Y465260D01*
X203808Y465340D01*
X203841Y465421D01*
X203870Y465503D01*
X203895Y465587D01*
X203916Y465672D01*
X203934Y465757D01*
X203947Y465844D01*
X203957Y465930D01*
X203963Y466018D01*
X203965Y466105D01*
X203965Y470000D01*
X203963Y470087D01*
X203957Y470175D01*
X203947Y470261D01*
X203934Y470348D01*
X203916Y470433D01*
X203895Y470518D01*
X203870Y470602D01*
X203841Y470684D01*
X203808Y470765D01*
X203772Y470845D01*
X203733Y470923D01*
X203689Y470999D01*
X203643Y471073D01*
X203593Y471144D01*
X203540Y471214D01*
X203484Y471281D01*
X203425Y471345D01*
X203363Y471407D01*
X203299Y471466D01*
X203232Y471522D01*
X203162Y471575D01*
X203091Y471625D01*
X203017Y471671D01*
X202941Y471715D01*
X202863Y471754D01*
X202783Y471790D01*
X202702Y471823D01*
X202620Y471852D01*
X202536Y471877D01*
X202451Y471898D01*
X202366Y471916D01*
X202279Y471929D01*
X202193Y471939D01*
X202105Y471945D01*
X202018Y471947D01*
X199422Y471947D01*
X194699Y475842D02*
X194699Y464158D01*
X194699Y468053D02*
X189506Y471947D01*
X192427Y469675D02*
X189506Y464158D01*
X288922Y430842D02*
X288922Y419158D01*
X288922Y430842D02*
X285676Y430842D01*
X285563Y430840D01*
X285450Y430834D01*
X285337Y430824D01*
X285224Y430810D01*
X285112Y430793D01*
X285001Y430771D01*
X284891Y430746D01*
X284781Y430716D01*
X284673Y430683D01*
X284566Y430646D01*
X284460Y430606D01*
X284356Y430561D01*
X284253Y430513D01*
X284152Y430462D01*
X284053Y430407D01*
X283956Y430349D01*
X283861Y430287D01*
X283768Y430222D01*
X283678Y430154D01*
X283590Y430083D01*
X283504Y430008D01*
X283421Y429931D01*
X283341Y429851D01*
X283264Y429768D01*
X283189Y429682D01*
X283118Y429594D01*
X283050Y429504D01*
X282985Y429411D01*
X282923Y429316D01*
X282865Y429219D01*
X282810Y429120D01*
X282759Y429019D01*
X282711Y428916D01*
X282666Y428812D01*
X282626Y428706D01*
X282589Y428599D01*
X282556Y428491D01*
X282526Y428381D01*
X282501Y428271D01*
X282479Y428160D01*
X282462Y428048D01*
X282448Y427935D01*
X282438Y427822D01*
X282432Y427709D01*
X282430Y427596D01*
X282431Y427596D02*
X282431Y422404D01*
X282430Y422404D02*
X282432Y422291D01*
X282438Y422178D01*
X282448Y422065D01*
X282462Y421952D01*
X282479Y421840D01*
X282501Y421729D01*
X282526Y421619D01*
X282556Y421509D01*
X282589Y421401D01*
X282626Y421294D01*
X282666Y421188D01*
X282711Y421084D01*
X282759Y420981D01*
X282810Y420880D01*
X282865Y420781D01*
X282923Y420684D01*
X282985Y420589D01*
X283050Y420496D01*
X283118Y420406D01*
X283189Y420318D01*
X283264Y420232D01*
X283341Y420149D01*
X283421Y420069D01*
X283504Y419992D01*
X283590Y419917D01*
X283678Y419846D01*
X283768Y419778D01*
X283861Y419713D01*
X283956Y419651D01*
X284053Y419593D01*
X284152Y419538D01*
X284253Y419487D01*
X284356Y419439D01*
X284460Y419394D01*
X284566Y419354D01*
X284673Y419317D01*
X284781Y419284D01*
X284891Y419254D01*
X285001Y419229D01*
X285112Y419207D01*
X285224Y419190D01*
X285337Y419176D01*
X285450Y419166D01*
X285563Y419160D01*
X285676Y419158D01*
X288922Y419158D01*
X277294Y419158D02*
X277294Y426947D01*
X277619Y430193D02*
X277619Y430842D01*
X276970Y430842D01*
X276970Y430193D01*
X277619Y430193D01*
X271678Y423702D02*
X268433Y422404D01*
X271678Y423701D02*
X271753Y423734D01*
X271827Y423770D01*
X271899Y423809D01*
X271969Y423852D01*
X272036Y423898D01*
X272102Y423948D01*
X272164Y424000D01*
X272225Y424056D01*
X272282Y424114D01*
X272337Y424175D01*
X272388Y424239D01*
X272436Y424305D01*
X272481Y424374D01*
X272523Y424444D01*
X272561Y424517D01*
X272596Y424591D01*
X272627Y424667D01*
X272654Y424744D01*
X272677Y424823D01*
X272697Y424902D01*
X272712Y424983D01*
X272724Y425064D01*
X272732Y425146D01*
X272736Y425227D01*
X272735Y425309D01*
X272731Y425391D01*
X272723Y425473D01*
X272711Y425554D01*
X272695Y425634D01*
X272675Y425714D01*
X272651Y425792D01*
X272623Y425869D01*
X272592Y425945D01*
X272557Y426019D01*
X272519Y426091D01*
X272477Y426162D01*
X272431Y426230D01*
X272383Y426296D01*
X272331Y426359D01*
X272276Y426420D01*
X272218Y426478D01*
X272158Y426534D01*
X272095Y426586D01*
X272029Y426635D01*
X271961Y426681D01*
X271891Y426723D01*
X271819Y426763D01*
X271745Y426798D01*
X271670Y426830D01*
X271593Y426858D01*
X271515Y426882D01*
X271435Y426903D01*
X271355Y426920D01*
X271274Y426932D01*
X271193Y426941D01*
X271111Y426946D01*
X271029Y426947D01*
X270852Y426943D01*
X270675Y426934D01*
X270498Y426920D01*
X270321Y426903D01*
X270146Y426881D01*
X269970Y426856D01*
X269796Y426825D01*
X269622Y426791D01*
X269449Y426753D01*
X269277Y426710D01*
X269106Y426663D01*
X268936Y426613D01*
X268767Y426558D01*
X268600Y426499D01*
X268435Y426436D01*
X268270Y426369D01*
X268108Y426298D01*
X268433Y422404D02*
X268358Y422371D01*
X268284Y422335D01*
X268212Y422296D01*
X268142Y422253D01*
X268075Y422207D01*
X268009Y422157D01*
X267947Y422105D01*
X267886Y422049D01*
X267829Y421991D01*
X267774Y421930D01*
X267723Y421866D01*
X267675Y421800D01*
X267630Y421731D01*
X267588Y421661D01*
X267550Y421588D01*
X267515Y421514D01*
X267484Y421438D01*
X267457Y421361D01*
X267434Y421282D01*
X267414Y421203D01*
X267399Y421122D01*
X267387Y421041D01*
X267379Y420959D01*
X267375Y420878D01*
X267376Y420796D01*
X267380Y420714D01*
X267388Y420632D01*
X267400Y420551D01*
X267416Y420471D01*
X267436Y420391D01*
X267460Y420313D01*
X267488Y420236D01*
X267519Y420160D01*
X267554Y420086D01*
X267592Y420014D01*
X267634Y419943D01*
X267680Y419875D01*
X267728Y419809D01*
X267780Y419746D01*
X267835Y419685D01*
X267893Y419627D01*
X267953Y419571D01*
X268016Y419519D01*
X268082Y419470D01*
X268150Y419424D01*
X268220Y419382D01*
X268292Y419342D01*
X268366Y419307D01*
X268441Y419275D01*
X268518Y419247D01*
X268596Y419223D01*
X268676Y419202D01*
X268756Y419185D01*
X268837Y419173D01*
X268918Y419164D01*
X269000Y419159D01*
X269082Y419158D01*
X269342Y419165D01*
X269602Y419178D01*
X269862Y419197D01*
X270121Y419222D01*
X270380Y419254D01*
X270637Y419291D01*
X270894Y419335D01*
X271150Y419384D01*
X271404Y419440D01*
X271657Y419501D01*
X271908Y419569D01*
X272158Y419643D01*
X272406Y419722D01*
X272652Y419807D01*
X262306Y415263D02*
X262306Y426947D01*
X259060Y426947D01*
X258973Y426945D01*
X258885Y426939D01*
X258799Y426929D01*
X258712Y426916D01*
X258627Y426898D01*
X258542Y426877D01*
X258458Y426852D01*
X258376Y426823D01*
X258295Y426790D01*
X258215Y426754D01*
X258137Y426715D01*
X258061Y426671D01*
X257987Y426625D01*
X257916Y426575D01*
X257846Y426522D01*
X257779Y426466D01*
X257715Y426407D01*
X257653Y426346D01*
X257594Y426281D01*
X257538Y426214D01*
X257485Y426144D01*
X257435Y426073D01*
X257389Y425999D01*
X257346Y425923D01*
X257306Y425845D01*
X257270Y425765D01*
X257237Y425684D01*
X257208Y425602D01*
X257183Y425518D01*
X257162Y425433D01*
X257144Y425348D01*
X257131Y425261D01*
X257121Y425175D01*
X257115Y425087D01*
X257113Y425000D01*
X257113Y421105D01*
X257115Y421018D01*
X257121Y420930D01*
X257131Y420844D01*
X257144Y420757D01*
X257162Y420672D01*
X257183Y420587D01*
X257208Y420503D01*
X257237Y420421D01*
X257270Y420340D01*
X257306Y420260D01*
X257345Y420182D01*
X257389Y420106D01*
X257435Y420032D01*
X257485Y419961D01*
X257538Y419891D01*
X257594Y419824D01*
X257653Y419759D01*
X257715Y419698D01*
X257779Y419639D01*
X257846Y419583D01*
X257916Y419530D01*
X257987Y419480D01*
X258061Y419434D01*
X258137Y419390D01*
X258215Y419351D01*
X258295Y419315D01*
X258376Y419282D01*
X258458Y419253D01*
X258542Y419228D01*
X258627Y419207D01*
X258712Y419189D01*
X258799Y419176D01*
X258886Y419166D01*
X258973Y419160D01*
X259060Y419158D01*
X262306Y419158D01*
X252309Y421105D02*
X252309Y430842D01*
X252309Y421105D02*
X252307Y421018D01*
X252301Y420930D01*
X252291Y420844D01*
X252278Y420757D01*
X252260Y420672D01*
X252239Y420587D01*
X252214Y420503D01*
X252185Y420421D01*
X252152Y420340D01*
X252116Y420260D01*
X252077Y420182D01*
X252033Y420106D01*
X251987Y420032D01*
X251937Y419961D01*
X251884Y419891D01*
X251828Y419824D01*
X251769Y419760D01*
X251707Y419698D01*
X251643Y419639D01*
X251576Y419583D01*
X251506Y419530D01*
X251435Y419480D01*
X251361Y419434D01*
X251285Y419390D01*
X251207Y419351D01*
X251127Y419315D01*
X251046Y419282D01*
X250964Y419253D01*
X250880Y419228D01*
X250795Y419207D01*
X250710Y419189D01*
X250623Y419176D01*
X250537Y419166D01*
X250449Y419160D01*
X250362Y419158D01*
X244150Y423702D02*
X241229Y423702D01*
X244150Y423702D02*
X244244Y423700D01*
X244338Y423694D01*
X244431Y423685D01*
X244524Y423671D01*
X244616Y423654D01*
X244708Y423632D01*
X244798Y423608D01*
X244888Y423579D01*
X244976Y423547D01*
X245063Y423511D01*
X245148Y423471D01*
X245231Y423428D01*
X245313Y423382D01*
X245393Y423332D01*
X245470Y423279D01*
X245545Y423223D01*
X245618Y423164D01*
X245689Y423102D01*
X245757Y423037D01*
X245822Y422969D01*
X245884Y422898D01*
X245943Y422825D01*
X245999Y422750D01*
X246052Y422673D01*
X246102Y422593D01*
X246148Y422511D01*
X246191Y422428D01*
X246231Y422343D01*
X246267Y422256D01*
X246299Y422168D01*
X246328Y422078D01*
X246352Y421988D01*
X246374Y421896D01*
X246391Y421804D01*
X246405Y421711D01*
X246414Y421618D01*
X246420Y421524D01*
X246422Y421430D01*
X246420Y421336D01*
X246414Y421242D01*
X246405Y421149D01*
X246391Y421056D01*
X246374Y420964D01*
X246352Y420872D01*
X246328Y420782D01*
X246299Y420692D01*
X246267Y420604D01*
X246231Y420517D01*
X246191Y420432D01*
X246148Y420349D01*
X246102Y420267D01*
X246052Y420187D01*
X245999Y420110D01*
X245943Y420035D01*
X245884Y419962D01*
X245822Y419891D01*
X245757Y419823D01*
X245689Y419758D01*
X245618Y419696D01*
X245545Y419637D01*
X245470Y419581D01*
X245393Y419528D01*
X245313Y419478D01*
X245231Y419432D01*
X245148Y419389D01*
X245063Y419349D01*
X244976Y419313D01*
X244888Y419281D01*
X244798Y419252D01*
X244708Y419228D01*
X244616Y419206D01*
X244524Y419189D01*
X244431Y419175D01*
X244338Y419166D01*
X244244Y419160D01*
X244150Y419158D01*
X241229Y419158D01*
X241229Y425000D01*
X241231Y425087D01*
X241237Y425175D01*
X241247Y425261D01*
X241260Y425348D01*
X241278Y425433D01*
X241299Y425518D01*
X241324Y425602D01*
X241353Y425684D01*
X241386Y425765D01*
X241422Y425845D01*
X241461Y425923D01*
X241505Y425999D01*
X241551Y426073D01*
X241601Y426144D01*
X241654Y426214D01*
X241710Y426281D01*
X241769Y426346D01*
X241831Y426407D01*
X241895Y426466D01*
X241962Y426522D01*
X242032Y426575D01*
X242103Y426625D01*
X242177Y426671D01*
X242253Y426715D01*
X242331Y426754D01*
X242411Y426790D01*
X242492Y426823D01*
X242574Y426852D01*
X242658Y426877D01*
X242743Y426898D01*
X242828Y426916D01*
X242915Y426929D01*
X243002Y426939D01*
X243089Y426945D01*
X243176Y426947D01*
X245773Y426947D01*
X236457Y415263D02*
X235159Y415263D01*
X231264Y426947D01*
X236457Y426947D02*
X233861Y419158D01*
X220173Y425649D02*
X216927Y425649D01*
X216927Y425650D02*
X216814Y425648D01*
X216701Y425642D01*
X216588Y425632D01*
X216475Y425618D01*
X216363Y425601D01*
X216252Y425579D01*
X216142Y425554D01*
X216032Y425524D01*
X215924Y425491D01*
X215817Y425454D01*
X215711Y425414D01*
X215607Y425369D01*
X215504Y425321D01*
X215403Y425270D01*
X215304Y425215D01*
X215207Y425157D01*
X215112Y425095D01*
X215019Y425030D01*
X214929Y424962D01*
X214841Y424891D01*
X214755Y424816D01*
X214672Y424739D01*
X214592Y424659D01*
X214515Y424576D01*
X214440Y424490D01*
X214369Y424402D01*
X214301Y424312D01*
X214236Y424219D01*
X214174Y424124D01*
X214116Y424027D01*
X214061Y423928D01*
X214010Y423827D01*
X213962Y423724D01*
X213917Y423620D01*
X213877Y423514D01*
X213840Y423407D01*
X213807Y423299D01*
X213777Y423189D01*
X213752Y423079D01*
X213730Y422968D01*
X213713Y422856D01*
X213699Y422743D01*
X213689Y422630D01*
X213683Y422517D01*
X213681Y422404D01*
X213683Y422291D01*
X213689Y422178D01*
X213699Y422065D01*
X213713Y421952D01*
X213730Y421840D01*
X213752Y421729D01*
X213777Y421619D01*
X213807Y421509D01*
X213840Y421401D01*
X213877Y421294D01*
X213917Y421188D01*
X213962Y421084D01*
X214010Y420981D01*
X214061Y420880D01*
X214116Y420781D01*
X214174Y420684D01*
X214236Y420589D01*
X214301Y420496D01*
X214369Y420406D01*
X214440Y420318D01*
X214515Y420232D01*
X214592Y420149D01*
X214672Y420069D01*
X214755Y419992D01*
X214841Y419917D01*
X214929Y419846D01*
X215019Y419778D01*
X215112Y419713D01*
X215207Y419651D01*
X215304Y419593D01*
X215403Y419538D01*
X215504Y419487D01*
X215607Y419439D01*
X215711Y419394D01*
X215817Y419354D01*
X215924Y419317D01*
X216032Y419284D01*
X216142Y419254D01*
X216252Y419229D01*
X216363Y419207D01*
X216475Y419190D01*
X216588Y419176D01*
X216701Y419166D01*
X216814Y419160D01*
X216927Y419158D01*
X220173Y419158D01*
X220173Y430842D01*
X216927Y430842D01*
X216826Y430840D01*
X216726Y430834D01*
X216626Y430824D01*
X216526Y430811D01*
X216427Y430793D01*
X216328Y430772D01*
X216231Y430747D01*
X216134Y430718D01*
X216039Y430685D01*
X215945Y430649D01*
X215853Y430609D01*
X215762Y430566D01*
X215673Y430519D01*
X215586Y430469D01*
X215500Y430415D01*
X215417Y430358D01*
X215337Y430298D01*
X215258Y430235D01*
X215182Y430168D01*
X215109Y430099D01*
X215039Y430027D01*
X214971Y429953D01*
X214906Y429876D01*
X214845Y429796D01*
X214786Y429714D01*
X214731Y429630D01*
X214679Y429544D01*
X214630Y429456D01*
X214585Y429366D01*
X214543Y429274D01*
X214505Y429181D01*
X214471Y429086D01*
X214440Y428991D01*
X214413Y428894D01*
X214390Y428796D01*
X214370Y428697D01*
X214355Y428597D01*
X214343Y428497D01*
X214335Y428397D01*
X214331Y428296D01*
X214331Y428196D01*
X214335Y428095D01*
X214343Y427995D01*
X214355Y427895D01*
X214370Y427795D01*
X214390Y427696D01*
X214413Y427598D01*
X214440Y427501D01*
X214471Y427406D01*
X214505Y427311D01*
X214543Y427218D01*
X214585Y427126D01*
X214630Y427036D01*
X214679Y426948D01*
X214731Y426862D01*
X214786Y426778D01*
X214845Y426696D01*
X214906Y426616D01*
X214971Y426539D01*
X215039Y426465D01*
X215109Y426393D01*
X215182Y426324D01*
X215258Y426257D01*
X215337Y426194D01*
X215417Y426134D01*
X215500Y426077D01*
X215586Y426023D01*
X215673Y425973D01*
X215762Y425926D01*
X215853Y425883D01*
X215945Y425843D01*
X216039Y425807D01*
X216134Y425774D01*
X216231Y425745D01*
X216328Y425720D01*
X216427Y425699D01*
X216526Y425681D01*
X216626Y425668D01*
X216726Y425658D01*
X216826Y425652D01*
X216927Y425650D01*
X209406Y424351D02*
X209406Y421754D01*
X209406Y424351D02*
X209404Y424452D01*
X209398Y424552D01*
X209388Y424652D01*
X209375Y424752D01*
X209357Y424851D01*
X209336Y424950D01*
X209311Y425047D01*
X209282Y425144D01*
X209249Y425239D01*
X209213Y425333D01*
X209173Y425425D01*
X209130Y425516D01*
X209083Y425605D01*
X209033Y425692D01*
X208979Y425778D01*
X208922Y425861D01*
X208862Y425941D01*
X208799Y426020D01*
X208732Y426096D01*
X208663Y426169D01*
X208591Y426239D01*
X208517Y426307D01*
X208440Y426372D01*
X208360Y426433D01*
X208278Y426492D01*
X208194Y426547D01*
X208108Y426599D01*
X208020Y426648D01*
X207930Y426693D01*
X207838Y426735D01*
X207745Y426773D01*
X207650Y426807D01*
X207555Y426838D01*
X207458Y426865D01*
X207360Y426888D01*
X207261Y426908D01*
X207161Y426923D01*
X207061Y426935D01*
X206961Y426943D01*
X206860Y426947D01*
X206760Y426947D01*
X206659Y426943D01*
X206559Y426935D01*
X206459Y426923D01*
X206359Y426908D01*
X206260Y426888D01*
X206162Y426865D01*
X206065Y426838D01*
X205970Y426807D01*
X205875Y426773D01*
X205782Y426735D01*
X205690Y426693D01*
X205600Y426648D01*
X205512Y426599D01*
X205426Y426547D01*
X205342Y426492D01*
X205260Y426433D01*
X205180Y426372D01*
X205103Y426307D01*
X205029Y426239D01*
X204957Y426169D01*
X204888Y426096D01*
X204821Y426020D01*
X204758Y425941D01*
X204698Y425861D01*
X204641Y425778D01*
X204587Y425692D01*
X204537Y425605D01*
X204490Y425516D01*
X204447Y425425D01*
X204407Y425333D01*
X204371Y425239D01*
X204338Y425144D01*
X204309Y425047D01*
X204284Y424950D01*
X204263Y424851D01*
X204245Y424752D01*
X204232Y424652D01*
X204222Y424552D01*
X204216Y424452D01*
X204214Y424351D01*
X204213Y424351D02*
X204213Y421754D01*
X204214Y421754D02*
X204216Y421653D01*
X204222Y421553D01*
X204232Y421453D01*
X204245Y421353D01*
X204263Y421254D01*
X204284Y421155D01*
X204309Y421058D01*
X204338Y420961D01*
X204371Y420866D01*
X204407Y420772D01*
X204447Y420680D01*
X204490Y420589D01*
X204537Y420500D01*
X204587Y420413D01*
X204641Y420327D01*
X204698Y420244D01*
X204758Y420164D01*
X204821Y420085D01*
X204888Y420009D01*
X204957Y419936D01*
X205029Y419866D01*
X205103Y419798D01*
X205180Y419733D01*
X205260Y419672D01*
X205342Y419613D01*
X205426Y419558D01*
X205512Y419506D01*
X205600Y419457D01*
X205690Y419412D01*
X205782Y419370D01*
X205875Y419332D01*
X205970Y419298D01*
X206065Y419267D01*
X206162Y419240D01*
X206260Y419217D01*
X206359Y419197D01*
X206459Y419182D01*
X206559Y419170D01*
X206659Y419162D01*
X206760Y419158D01*
X206860Y419158D01*
X206961Y419162D01*
X207061Y419170D01*
X207161Y419182D01*
X207261Y419197D01*
X207360Y419217D01*
X207458Y419240D01*
X207555Y419267D01*
X207650Y419298D01*
X207745Y419332D01*
X207838Y419370D01*
X207930Y419412D01*
X208020Y419457D01*
X208108Y419506D01*
X208194Y419558D01*
X208278Y419613D01*
X208360Y419672D01*
X208440Y419733D01*
X208517Y419798D01*
X208591Y419866D01*
X208663Y419936D01*
X208732Y420009D01*
X208799Y420085D01*
X208862Y420164D01*
X208922Y420244D01*
X208979Y420327D01*
X209033Y420413D01*
X209083Y420500D01*
X209130Y420589D01*
X209173Y420680D01*
X209213Y420772D01*
X209249Y420866D01*
X209282Y420961D01*
X209311Y421058D01*
X209336Y421155D01*
X209357Y421254D01*
X209375Y421353D01*
X209388Y421453D01*
X209398Y421553D01*
X209404Y421653D01*
X209406Y421754D01*
X197287Y423702D02*
X194366Y423702D01*
X197287Y423702D02*
X197381Y423700D01*
X197475Y423694D01*
X197568Y423685D01*
X197661Y423671D01*
X197753Y423654D01*
X197845Y423632D01*
X197935Y423608D01*
X198025Y423579D01*
X198113Y423547D01*
X198200Y423511D01*
X198285Y423471D01*
X198368Y423428D01*
X198450Y423382D01*
X198530Y423332D01*
X198607Y423279D01*
X198682Y423223D01*
X198755Y423164D01*
X198826Y423102D01*
X198894Y423037D01*
X198959Y422969D01*
X199021Y422898D01*
X199080Y422825D01*
X199136Y422750D01*
X199189Y422673D01*
X199239Y422593D01*
X199285Y422511D01*
X199328Y422428D01*
X199368Y422343D01*
X199404Y422256D01*
X199436Y422168D01*
X199465Y422078D01*
X199489Y421988D01*
X199511Y421896D01*
X199528Y421804D01*
X199542Y421711D01*
X199551Y421618D01*
X199557Y421524D01*
X199559Y421430D01*
X199557Y421336D01*
X199551Y421242D01*
X199542Y421149D01*
X199528Y421056D01*
X199511Y420964D01*
X199489Y420872D01*
X199465Y420782D01*
X199436Y420692D01*
X199404Y420604D01*
X199368Y420517D01*
X199328Y420432D01*
X199285Y420349D01*
X199239Y420267D01*
X199189Y420187D01*
X199136Y420110D01*
X199080Y420035D01*
X199021Y419962D01*
X198959Y419891D01*
X198894Y419823D01*
X198826Y419758D01*
X198755Y419696D01*
X198682Y419637D01*
X198607Y419581D01*
X198530Y419528D01*
X198450Y419478D01*
X198368Y419432D01*
X198285Y419389D01*
X198200Y419349D01*
X198113Y419313D01*
X198025Y419281D01*
X197935Y419252D01*
X197845Y419228D01*
X197753Y419206D01*
X197661Y419189D01*
X197568Y419175D01*
X197475Y419166D01*
X197381Y419160D01*
X197287Y419158D01*
X194366Y419158D01*
X194366Y425000D01*
X194368Y425087D01*
X194374Y425175D01*
X194384Y425261D01*
X194397Y425348D01*
X194415Y425433D01*
X194436Y425518D01*
X194461Y425602D01*
X194490Y425684D01*
X194523Y425765D01*
X194559Y425845D01*
X194598Y425923D01*
X194642Y425999D01*
X194688Y426073D01*
X194738Y426144D01*
X194791Y426214D01*
X194847Y426281D01*
X194906Y426346D01*
X194968Y426407D01*
X195032Y426466D01*
X195099Y426522D01*
X195169Y426575D01*
X195240Y426625D01*
X195314Y426671D01*
X195390Y426715D01*
X195468Y426754D01*
X195548Y426790D01*
X195629Y426823D01*
X195711Y426852D01*
X195795Y426877D01*
X195880Y426898D01*
X195965Y426916D01*
X196052Y426929D01*
X196139Y426939D01*
X196226Y426945D01*
X196313Y426947D01*
X198910Y426947D01*
X188766Y426947D02*
X188766Y419158D01*
X188766Y426947D02*
X184871Y426947D01*
X184871Y425649D01*
X176078Y430842D02*
X176078Y419158D01*
X179324Y419158D01*
X179411Y419160D01*
X179499Y419166D01*
X179585Y419176D01*
X179672Y419189D01*
X179757Y419207D01*
X179842Y419228D01*
X179926Y419253D01*
X180008Y419282D01*
X180089Y419315D01*
X180169Y419351D01*
X180247Y419390D01*
X180323Y419434D01*
X180397Y419480D01*
X180468Y419530D01*
X180538Y419583D01*
X180605Y419639D01*
X180669Y419698D01*
X180731Y419760D01*
X180790Y419824D01*
X180846Y419891D01*
X180899Y419961D01*
X180949Y420032D01*
X180995Y420106D01*
X181039Y420182D01*
X181078Y420260D01*
X181114Y420340D01*
X181147Y420421D01*
X181176Y420503D01*
X181201Y420587D01*
X181222Y420672D01*
X181240Y420757D01*
X181253Y420844D01*
X181263Y420930D01*
X181269Y421018D01*
X181271Y421105D01*
X181271Y425000D01*
X181269Y425087D01*
X181263Y425175D01*
X181253Y425261D01*
X181240Y425348D01*
X181222Y425433D01*
X181201Y425518D01*
X181176Y425602D01*
X181147Y425684D01*
X181114Y425765D01*
X181078Y425845D01*
X181039Y425923D01*
X180995Y425999D01*
X180949Y426073D01*
X180899Y426144D01*
X180846Y426214D01*
X180790Y426281D01*
X180731Y426345D01*
X180669Y426407D01*
X180605Y426466D01*
X180538Y426522D01*
X180468Y426575D01*
X180397Y426625D01*
X180323Y426671D01*
X180247Y426715D01*
X180169Y426754D01*
X180089Y426790D01*
X180008Y426823D01*
X179926Y426852D01*
X179842Y426877D01*
X179757Y426898D01*
X179672Y426916D01*
X179585Y426929D01*
X179499Y426939D01*
X179411Y426945D01*
X179324Y426947D01*
X176078Y426947D01*
D11*
X215900Y69850D02*
X228600Y69850D01*
X234950Y76200D01*
X234950Y88900D01*
X228600Y95250D01*
X209550Y88900D02*
X209550Y76200D01*
X215900Y69850D01*
X209550Y88900D02*
X215900Y95250D01*
X228600Y95250D01*
X234950Y76200D02*
X241300Y69850D01*
X254000Y69850D01*
X260350Y76200D01*
X260350Y88900D01*
X254000Y95250D01*
X241300Y95250D01*
X234950Y88900D01*
X146050Y69850D02*
X133350Y69850D01*
X146050Y69850D02*
X152400Y76200D01*
X152400Y88900D01*
X146050Y95250D01*
X107950Y69850D02*
X101600Y76200D01*
X107950Y69850D02*
X120650Y69850D01*
X127000Y76200D01*
X127000Y88900D01*
X120650Y95250D01*
X107950Y95250D01*
X101600Y88900D01*
X127000Y76200D02*
X133350Y69850D01*
X127000Y88900D02*
X133350Y95250D01*
X146050Y95250D01*
X69850Y69850D02*
X57150Y69850D01*
X69850Y69850D02*
X76200Y76200D01*
X76200Y88900D01*
X69850Y95250D01*
X76200Y76200D02*
X82550Y69850D01*
X95250Y69850D01*
X101600Y76200D01*
X101600Y88900D01*
X95250Y95250D01*
X82550Y95250D01*
X76200Y88900D01*
X50800Y88900D02*
X50800Y76200D01*
X57150Y69850D01*
X50800Y88900D02*
X57150Y95250D01*
X69850Y95250D01*
X158750Y69850D02*
X171450Y69850D01*
X177800Y76200D01*
X177800Y88900D01*
X171450Y95250D01*
X152400Y76200D02*
X158750Y69850D01*
X152400Y88900D02*
X158750Y95250D01*
X171450Y95250D01*
D14*
X261450Y435350D02*
X261900Y435350D01*
X261450Y435350D02*
X261337Y435352D01*
X261225Y435358D01*
X261113Y435367D01*
X261001Y435381D01*
X260889Y435398D01*
X260779Y435419D01*
X260669Y435444D01*
X260560Y435472D01*
X260452Y435505D01*
X260345Y435541D01*
X260239Y435580D01*
X260135Y435623D01*
X260033Y435670D01*
X259932Y435720D01*
X259833Y435774D01*
X259735Y435830D01*
X259640Y435891D01*
X259547Y435954D01*
X259456Y436021D01*
X259367Y436090D01*
X259281Y436163D01*
X259198Y436238D01*
X259117Y436317D01*
X259038Y436398D01*
X258963Y436481D01*
X258890Y436567D01*
X258821Y436656D01*
X258754Y436747D01*
X258691Y436840D01*
X258630Y436935D01*
X258574Y437033D01*
X258520Y437132D01*
X258470Y437233D01*
X258423Y437335D01*
X258380Y437439D01*
X258341Y437545D01*
X258305Y437652D01*
X258272Y437760D01*
X258244Y437869D01*
X258219Y437979D01*
X258198Y438089D01*
X258181Y438201D01*
X258167Y438313D01*
X258158Y438425D01*
X258152Y438537D01*
X258150Y438650D01*
X258150Y452150D01*
X258148Y452273D01*
X258142Y452395D01*
X258133Y452517D01*
X258119Y452639D01*
X258102Y452760D01*
X258081Y452881D01*
X258056Y453001D01*
X258027Y453120D01*
X257995Y453238D01*
X257959Y453355D01*
X257919Y453471D01*
X257876Y453586D01*
X257829Y453699D01*
X257779Y453811D01*
X257725Y453921D01*
X257668Y454029D01*
X257607Y454135D01*
X257543Y454240D01*
X257476Y454342D01*
X257405Y454442D01*
X257332Y454540D01*
X257255Y454636D01*
X257175Y454729D01*
X257093Y454820D01*
X257008Y454908D01*
X256920Y454993D01*
X256829Y455075D01*
X256736Y455155D01*
X256640Y455232D01*
X256542Y455305D01*
X256442Y455376D01*
X256340Y455443D01*
X256235Y455507D01*
X256129Y455568D01*
X256021Y455625D01*
X255911Y455679D01*
X255799Y455729D01*
X255686Y455776D01*
X255571Y455819D01*
X255455Y455859D01*
X255338Y455895D01*
X255220Y455927D01*
X255101Y455956D01*
X254981Y455981D01*
X254860Y456002D01*
X254739Y456019D01*
X254617Y456033D01*
X254495Y456042D01*
X254373Y456048D01*
X254250Y456050D01*
X252000Y456050D01*
X251873Y456048D01*
X251746Y456042D01*
X251620Y456033D01*
X251494Y456019D01*
X251368Y456002D01*
X251243Y455981D01*
X251118Y455956D01*
X250995Y455928D01*
X250872Y455896D01*
X250750Y455860D01*
X250630Y455820D01*
X250511Y455777D01*
X250393Y455730D01*
X250276Y455680D01*
X250161Y455626D01*
X250048Y455569D01*
X249937Y455508D01*
X249827Y455444D01*
X249720Y455377D01*
X249614Y455307D01*
X249511Y455233D01*
X249410Y455156D01*
X249311Y455076D01*
X249215Y454994D01*
X249121Y454908D01*
X249030Y454820D01*
X248942Y454729D01*
X248856Y454635D01*
X248774Y454539D01*
X248694Y454440D01*
X248617Y454339D01*
X248543Y454236D01*
X248473Y454130D01*
X248406Y454023D01*
X248342Y453913D01*
X248281Y453802D01*
X248224Y453689D01*
X248170Y453574D01*
X248120Y453457D01*
X248073Y453339D01*
X248030Y453220D01*
X247990Y453100D01*
X247954Y452978D01*
X247922Y452855D01*
X247894Y452732D01*
X247869Y452607D01*
X247848Y452482D01*
X247831Y452356D01*
X247817Y452230D01*
X247808Y452104D01*
X247802Y451977D01*
X247800Y451850D01*
X247800Y438500D01*
X247798Y438385D01*
X247792Y438270D01*
X247783Y438155D01*
X247769Y438040D01*
X247752Y437926D01*
X247731Y437813D01*
X247706Y437700D01*
X247677Y437589D01*
X247645Y437478D01*
X247609Y437368D01*
X247569Y437260D01*
X247526Y437153D01*
X247479Y437048D01*
X247429Y436944D01*
X247375Y436842D01*
X247318Y436742D01*
X247258Y436644D01*
X247194Y436547D01*
X247127Y436454D01*
X247058Y436362D01*
X246985Y436273D01*
X246909Y436186D01*
X246830Y436102D01*
X246748Y436020D01*
X246664Y435941D01*
X246577Y435865D01*
X246488Y435792D01*
X246396Y435723D01*
X246303Y435656D01*
X246206Y435592D01*
X246108Y435532D01*
X246008Y435475D01*
X245906Y435421D01*
X245802Y435371D01*
X245697Y435324D01*
X245590Y435281D01*
X245482Y435241D01*
X245372Y435205D01*
X245261Y435173D01*
X245150Y435144D01*
X245037Y435119D01*
X244924Y435098D01*
X244810Y435081D01*
X244695Y435067D01*
X244580Y435058D01*
X244465Y435052D01*
X244350Y435050D01*
X244350Y453350D01*
X244352Y453506D01*
X244358Y453661D01*
X244368Y453817D01*
X244382Y453972D01*
X244399Y454127D01*
X244421Y454281D01*
X244446Y454435D01*
X244476Y454588D01*
X244509Y454740D01*
X244546Y454892D01*
X244587Y455042D01*
X244632Y455191D01*
X244681Y455339D01*
X244733Y455486D01*
X244789Y455631D01*
X244848Y455775D01*
X244912Y455918D01*
X244979Y456058D01*
X245049Y456197D01*
X245123Y456335D01*
X245200Y456470D01*
X245281Y456603D01*
X245365Y456734D01*
X245452Y456863D01*
X245543Y456990D01*
X245637Y457114D01*
X245734Y457236D01*
X245834Y457356D01*
X245937Y457473D01*
X246043Y457587D01*
X246151Y457699D01*
X246263Y457807D01*
X246377Y457913D01*
X246494Y458016D01*
X246614Y458116D01*
X246736Y458213D01*
X246860Y458307D01*
X246987Y458398D01*
X247116Y458485D01*
X247247Y458569D01*
X247380Y458650D01*
X247515Y458727D01*
X247653Y458801D01*
X247792Y458871D01*
X247932Y458938D01*
X248075Y459002D01*
X248219Y459061D01*
X248364Y459117D01*
X248511Y459169D01*
X248659Y459218D01*
X248808Y459263D01*
X248958Y459304D01*
X249110Y459341D01*
X249262Y459374D01*
X249415Y459404D01*
X249569Y459429D01*
X249723Y459451D01*
X249878Y459468D01*
X250033Y459482D01*
X250189Y459492D01*
X250344Y459498D01*
X250500Y459500D01*
X255750Y459500D01*
X261900Y435350D02*
X261900Y434150D01*
X255750Y459500D02*
X255458Y459658D01*
X255162Y459808D01*
X254863Y459951D01*
X254561Y460087D01*
X254255Y460216D01*
X253947Y460337D01*
X253635Y460451D01*
X253321Y460557D01*
X253005Y460656D01*
X252686Y460747D01*
X252365Y460830D01*
X252042Y460905D01*
X251718Y460973D01*
X251391Y461032D01*
X251064Y461084D01*
X250735Y461128D01*
X250406Y461164D01*
X250075Y461192D01*
X249744Y461212D01*
X249413Y461224D01*
X249082Y461228D01*
X248750Y461224D01*
X248419Y461212D01*
X248088Y461192D01*
X247757Y461164D01*
X247428Y461128D01*
X247099Y461084D01*
X246772Y461032D01*
X246446Y460972D01*
X246121Y460905D01*
X245798Y460829D01*
X245477Y460746D01*
X245158Y460655D01*
X244842Y460556D01*
X244528Y460450D01*
X244216Y460336D01*
X243908Y460215D01*
X243602Y460086D01*
X243300Y459950D01*
X243301Y459950D02*
X242935Y460094D01*
X242565Y460229D01*
X242192Y460355D01*
X241817Y460471D01*
X241438Y460578D01*
X241057Y460676D01*
X240674Y460765D01*
X240289Y460844D01*
X239902Y460914D01*
X239513Y460974D01*
X239123Y461025D01*
X238732Y461066D01*
X238340Y461097D01*
X237947Y461119D01*
X237554Y461131D01*
X237161Y461134D01*
X236767Y461127D01*
X236374Y461110D01*
X235982Y461084D01*
X235590Y461048D01*
X235200Y461002D01*
X234810Y460947D01*
X234422Y460882D01*
X234036Y460808D01*
X233651Y460724D01*
X233269Y460631D01*
X232890Y460529D01*
X232512Y460418D01*
X232138Y460297D01*
X231767Y460167D01*
X231399Y460028D01*
X231034Y459880D01*
X230674Y459723D01*
X230317Y459557D01*
X229965Y459383D01*
X229616Y459200D01*
X229273Y459008D01*
X228934Y458808D01*
X228600Y458600D01*
X228298Y458810D01*
X227991Y459013D01*
X227680Y459209D01*
X227364Y459397D01*
X227043Y459578D01*
X226718Y459750D01*
X226389Y459915D01*
X226056Y460072D01*
X225719Y460220D01*
X225379Y460360D01*
X225035Y460492D01*
X224688Y460616D01*
X224339Y460731D01*
X223987Y460838D01*
X223632Y460936D01*
X223275Y461025D01*
X222916Y461106D01*
X222555Y461178D01*
X222192Y461241D01*
X221828Y461295D01*
X221463Y461341D01*
X221097Y461378D01*
X220730Y461405D01*
X220362Y461424D01*
X219995Y461434D01*
X219627Y461435D01*
X219259Y461427D01*
X218891Y461411D01*
X218524Y461385D01*
X218157Y461350D01*
X217792Y461307D01*
X217428Y461254D01*
X217065Y461193D01*
X216703Y461123D01*
X216344Y461045D01*
X215986Y460957D01*
X215631Y460861D01*
X215278Y460756D01*
X214928Y460643D01*
X214581Y460522D01*
X214237Y460392D01*
X213896Y460253D01*
X213558Y460107D01*
X213224Y459952D01*
X212894Y459789D01*
X212568Y459618D01*
X212246Y459440D01*
X211929Y459253D01*
X211616Y459059D01*
X211308Y458858D01*
X211005Y458649D01*
X210707Y458433D01*
X210415Y458209D01*
X210128Y457979D01*
X209847Y457742D01*
X209571Y457497D01*
X209302Y457247D01*
X209038Y456990D01*
X208782Y456726D01*
X208531Y456457D01*
X208287Y456181D01*
X208050Y455900D01*
X207827Y455816D01*
X207607Y455727D01*
X207389Y455632D01*
X207173Y455532D01*
X206959Y455427D01*
X206748Y455317D01*
X206540Y455202D01*
X206335Y455081D01*
X206133Y454956D01*
X205934Y454826D01*
X205738Y454691D01*
X205545Y454552D01*
X205356Y454408D01*
X205170Y454259D01*
X204988Y454106D01*
X204809Y453949D01*
X204635Y453787D01*
X204464Y453622D01*
X204298Y453452D01*
X204135Y453278D01*
X203977Y453100D01*
X203824Y452919D01*
X203674Y452734D01*
X203529Y452545D01*
X203389Y452353D01*
X203253Y452157D01*
X203123Y451959D01*
X202997Y451757D01*
X202875Y451552D01*
X202759Y451345D01*
X202648Y451134D01*
X202542Y450921D01*
X202441Y450706D01*
X202346Y450488D01*
X202256Y450268D01*
X202171Y450046D01*
X202091Y449822D01*
X202017Y449596D01*
X201948Y449368D01*
X201885Y449139D01*
X201827Y448908D01*
X201775Y448676D01*
X201729Y448443D01*
X201688Y448208D01*
X201653Y447973D01*
X201624Y447737D01*
X201600Y447500D01*
X201763Y447785D01*
X201934Y448067D01*
X202111Y448344D01*
X202294Y448617D01*
X202485Y448886D01*
X202681Y449150D01*
X202884Y449410D01*
X203092Y449664D01*
X203307Y449913D01*
X203528Y450158D01*
X203754Y450396D01*
X203986Y450630D01*
X204223Y450858D01*
X204466Y451080D01*
X204714Y451296D01*
X204967Y451507D01*
X205225Y451711D01*
X205488Y451909D01*
X205755Y452101D01*
X206027Y452286D01*
X206303Y452465D01*
X206584Y452637D01*
X206868Y452803D01*
X207156Y452962D01*
X207448Y453113D01*
X207744Y453258D01*
X208043Y453396D01*
X208345Y453527D01*
X208650Y453650D01*
X208716Y453857D01*
X208788Y454063D01*
X208865Y454267D01*
X208947Y454469D01*
X209034Y454669D01*
X209125Y454867D01*
X209222Y455063D01*
X209323Y455256D01*
X209429Y455447D01*
X209539Y455635D01*
X209655Y455820D01*
X209774Y456002D01*
X209898Y456181D01*
X210027Y456358D01*
X210159Y456531D01*
X210296Y456700D01*
X210437Y456867D01*
X210582Y457029D01*
X210731Y457189D01*
X210884Y457344D01*
X211041Y457496D01*
X211201Y457644D01*
X211365Y457788D01*
X211532Y457927D01*
X211703Y458063D01*
X211877Y458194D01*
X212054Y458322D01*
X212234Y458444D01*
X212417Y458563D01*
X212603Y458676D01*
X212792Y458786D01*
X212983Y458890D01*
X213177Y458990D01*
X213374Y459085D01*
X213572Y459175D01*
X213773Y459261D01*
X213975Y459341D01*
X214180Y459416D01*
X214386Y459487D01*
X214594Y459552D01*
X214804Y459612D01*
X215015Y459667D01*
X215227Y459717D01*
X215441Y459762D01*
X215655Y459801D01*
X215871Y459835D01*
X216087Y459864D01*
X216304Y459887D01*
X216521Y459905D01*
X216739Y459918D01*
X216956Y459926D01*
X217174Y459928D01*
X217392Y459925D01*
X217610Y459916D01*
X217828Y459902D01*
X218045Y459883D01*
X218262Y459859D01*
X218478Y459829D01*
X218693Y459794D01*
X218907Y459754D01*
X219121Y459708D01*
X219333Y459657D01*
X219543Y459601D01*
X219753Y459540D01*
X219960Y459474D01*
X220166Y459403D01*
X220371Y459326D01*
X220573Y459245D01*
X220773Y459159D01*
X220971Y459068D01*
X221167Y458972D01*
X221361Y458871D01*
X221552Y458766D01*
X221740Y458655D01*
X221925Y458541D01*
X222108Y458422D01*
X222287Y458298D01*
X222464Y458170D01*
X222637Y458038D01*
X222807Y457901D01*
X222974Y457761D01*
X223137Y457616D01*
X223297Y457468D01*
X223453Y457315D01*
X223605Y457159D01*
X223753Y456999D01*
X223898Y456836D01*
X224038Y456669D01*
X224174Y456498D01*
X224306Y456325D01*
X224433Y456148D01*
X224557Y455968D01*
X224675Y455785D01*
X224790Y455599D01*
X224899Y455411D01*
X225004Y455220D01*
X225105Y455026D01*
X225200Y454830D01*
X225291Y454632D01*
X225377Y454432D01*
X225458Y454229D01*
X225534Y454025D01*
X225604Y453819D01*
X225670Y453611D01*
X225731Y453401D01*
X225787Y453190D01*
X225837Y452978D01*
X225882Y452765D01*
X225922Y452551D01*
X225957Y452335D01*
X225986Y452119D01*
X226010Y451902D01*
X226029Y451685D01*
X226042Y451468D01*
X226050Y451250D01*
X226050Y443900D01*
X226052Y443756D01*
X226058Y443612D01*
X226068Y443468D01*
X226081Y443324D01*
X226099Y443181D01*
X226120Y443039D01*
X226145Y442897D01*
X226174Y442755D01*
X226207Y442615D01*
X226244Y442475D01*
X226285Y442337D01*
X226329Y442200D01*
X226377Y442064D01*
X226428Y441929D01*
X226483Y441796D01*
X226542Y441664D01*
X226604Y441534D01*
X226670Y441406D01*
X226740Y441279D01*
X226812Y441155D01*
X226888Y441032D01*
X226968Y440912D01*
X227050Y440793D01*
X227136Y440677D01*
X227225Y440564D01*
X227316Y440453D01*
X227411Y440344D01*
X227509Y440238D01*
X227610Y440135D01*
X227713Y440034D01*
X227819Y439936D01*
X227928Y439841D01*
X228039Y439750D01*
X228152Y439661D01*
X228268Y439575D01*
X228387Y439493D01*
X228507Y439413D01*
X228630Y439337D01*
X228754Y439265D01*
X228881Y439195D01*
X229009Y439129D01*
X229139Y439067D01*
X229271Y439008D01*
X229404Y438953D01*
X229539Y438902D01*
X229675Y438854D01*
X229812Y438810D01*
X229950Y438769D01*
X230090Y438732D01*
X230230Y438699D01*
X230372Y438670D01*
X230514Y438645D01*
X230656Y438624D01*
X230799Y438606D01*
X230943Y438593D01*
X231087Y438583D01*
X231231Y438577D01*
X231375Y438575D01*
X231519Y438577D01*
X231663Y438583D01*
X231807Y438593D01*
X231951Y438606D01*
X232094Y438624D01*
X232236Y438645D01*
X232378Y438670D01*
X232520Y438699D01*
X232660Y438732D01*
X232800Y438769D01*
X232938Y438810D01*
X233075Y438854D01*
X233211Y438902D01*
X233346Y438953D01*
X233479Y439008D01*
X233611Y439067D01*
X233741Y439129D01*
X233869Y439195D01*
X233996Y439265D01*
X234120Y439337D01*
X234243Y439413D01*
X234363Y439493D01*
X234482Y439575D01*
X234598Y439661D01*
X234711Y439750D01*
X234822Y439841D01*
X234931Y439936D01*
X235037Y440034D01*
X235140Y440135D01*
X235241Y440238D01*
X235339Y440344D01*
X235434Y440453D01*
X235525Y440564D01*
X235614Y440677D01*
X235700Y440793D01*
X235782Y440912D01*
X235862Y441032D01*
X235938Y441155D01*
X236010Y441279D01*
X236080Y441406D01*
X236146Y441534D01*
X236208Y441664D01*
X236267Y441796D01*
X236322Y441929D01*
X236373Y442064D01*
X236421Y442200D01*
X236465Y442337D01*
X236506Y442475D01*
X236543Y442615D01*
X236576Y442755D01*
X236605Y442897D01*
X236630Y443039D01*
X236651Y443181D01*
X236669Y443324D01*
X236682Y443468D01*
X236692Y443612D01*
X236698Y443756D01*
X236700Y443900D01*
X236739Y446000D01*
X236739Y448100D01*
X236700Y450200D01*
X236699Y450304D01*
X236702Y450408D01*
X236709Y450511D01*
X236719Y450615D01*
X236733Y450718D01*
X236751Y450820D01*
X236773Y450921D01*
X236799Y451022D01*
X236828Y451122D01*
X236861Y451220D01*
X236898Y451318D01*
X236938Y451414D01*
X236982Y451508D01*
X237029Y451600D01*
X237079Y451691D01*
X237133Y451780D01*
X237190Y451867D01*
X237250Y451952D01*
X237314Y452034D01*
X237380Y452114D01*
X237449Y452192D01*
X237521Y452266D01*
X237596Y452339D01*
X237673Y452408D01*
X237753Y452474D01*
X237836Y452538D01*
X237920Y452598D01*
X238007Y452655D01*
X238096Y452709D01*
X238186Y452760D01*
X238279Y452807D01*
X238373Y452851D01*
X238469Y452891D01*
X238566Y452928D01*
X238665Y452961D01*
X238764Y452991D01*
X238865Y453017D01*
X238966Y453039D01*
X239069Y453057D01*
X239172Y453071D01*
X239275Y453082D01*
X239379Y453089D01*
X239483Y453092D01*
X239586Y453091D01*
X239690Y453086D01*
X239794Y453078D01*
X239897Y453066D01*
X240000Y453049D01*
X240000Y453050D02*
X240300Y453050D01*
X240300Y443450D01*
X240297Y443235D01*
X240289Y443020D01*
X240276Y442805D01*
X240258Y442591D01*
X240234Y442377D01*
X240205Y442164D01*
X240171Y441952D01*
X240132Y441740D01*
X240088Y441530D01*
X240038Y441320D01*
X239984Y441112D01*
X239924Y440906D01*
X239859Y440701D01*
X239789Y440497D01*
X239715Y440296D01*
X239635Y440096D01*
X239551Y439898D01*
X239461Y439702D01*
X239367Y439509D01*
X239269Y439318D01*
X239165Y439129D01*
X239057Y438943D01*
X238945Y438760D01*
X238828Y438579D01*
X238706Y438402D01*
X238581Y438227D01*
X238451Y438056D01*
X238317Y437887D01*
X238179Y437722D01*
X238037Y437561D01*
X237891Y437403D01*
X237741Y437249D01*
X237587Y437098D01*
X237430Y436951D01*
X237269Y436808D01*
X237105Y436669D01*
X236938Y436534D01*
X236767Y436404D01*
X236593Y436277D01*
X236416Y436155D01*
X236236Y436037D01*
X236053Y435924D01*
X235868Y435815D01*
X235680Y435710D01*
X235489Y435610D01*
X235296Y435515D01*
X235101Y435425D01*
X234904Y435340D01*
X234704Y435259D01*
X234503Y435183D01*
X234300Y435112D01*
X234095Y435047D01*
X233889Y434986D01*
X233681Y434930D01*
X233472Y434879D01*
X233262Y434834D01*
X233051Y434794D01*
X232838Y434758D01*
X232625Y434728D01*
X232412Y434704D01*
X232198Y434684D01*
X231983Y434670D01*
X231768Y434661D01*
X231553Y434657D01*
X231338Y434659D01*
X231123Y434665D01*
X230908Y434677D01*
X230694Y434695D01*
X230480Y434717D01*
X230267Y434745D01*
X230054Y434778D01*
X229842Y434816D01*
X229632Y434859D01*
X229422Y434908D01*
X229214Y434961D01*
X229007Y435020D01*
X228801Y435084D01*
X228598Y435152D01*
X228396Y435226D01*
X228195Y435304D01*
X227997Y435388D01*
X227801Y435476D01*
X227607Y435569D01*
X227415Y435667D01*
X227226Y435769D01*
X227040Y435876D01*
X226856Y435988D01*
X226675Y436104D01*
X226496Y436224D01*
X226321Y436349D01*
X226149Y436478D01*
X225980Y436611D01*
X225814Y436748D01*
X225652Y436890D01*
X225494Y437035D01*
X225338Y437184D01*
X225187Y437337D01*
X225039Y437493D01*
X224896Y437653D01*
X224756Y437816D01*
X224620Y437983D01*
X224488Y438153D01*
X224361Y438327D01*
X224238Y438503D01*
X224119Y438682D01*
X224004Y438864D01*
X223895Y439049D01*
X223789Y439237D01*
X223688Y439427D01*
X223592Y439619D01*
X223501Y439814D01*
X223414Y440011D01*
X223333Y440210D01*
X223256Y440411D01*
X223184Y440613D01*
X223117Y440818D01*
X223055Y441024D01*
X222999Y441231D01*
X222947Y441440D01*
X222900Y441650D01*
X218850Y441650D01*
X218849Y441650D02*
X218741Y441417D01*
X218627Y441187D01*
X218508Y440960D01*
X218383Y440736D01*
X218253Y440515D01*
X218117Y440298D01*
X217976Y440083D01*
X217830Y439873D01*
X217679Y439666D01*
X217522Y439462D01*
X217361Y439263D01*
X217195Y439067D01*
X217024Y438876D01*
X216849Y438689D01*
X216669Y438506D01*
X216485Y438328D01*
X216296Y438154D01*
X216103Y437985D01*
X215906Y437821D01*
X215705Y437661D01*
X215500Y437507D01*
X215292Y437357D01*
X215080Y437213D01*
X214864Y437074D01*
X214645Y436941D01*
X214423Y436812D01*
X214198Y436689D01*
X213970Y436572D01*
X213739Y436460D01*
X213506Y436354D01*
X213270Y436254D01*
X213031Y436160D01*
X212790Y436071D01*
X212548Y435989D01*
X212303Y435912D01*
X212056Y435841D01*
X211808Y435777D01*
X211559Y435718D01*
X211307Y435666D01*
X211055Y435619D01*
X210802Y435579D01*
X210548Y435545D01*
X210293Y435518D01*
X210037Y435497D01*
X209781Y435481D01*
X209525Y435473D01*
X209268Y435470D01*
X209012Y435474D01*
X208756Y435484D01*
X208500Y435500D01*
X208857Y435368D01*
X209218Y435245D01*
X209582Y435130D01*
X209948Y435025D01*
X210317Y434928D01*
X210688Y434840D01*
X211061Y434761D01*
X211436Y434691D01*
X211812Y434630D01*
X212190Y434579D01*
X212569Y434536D01*
X212949Y434503D01*
X213329Y434478D01*
X213710Y434463D01*
X214091Y434457D01*
X214473Y434460D01*
X214854Y434473D01*
X215234Y434494D01*
X215615Y434525D01*
X215994Y434565D01*
X216372Y434614D01*
X216749Y434672D01*
X217124Y434739D01*
X217498Y434816D01*
X217869Y434901D01*
X218239Y434995D01*
X218606Y435098D01*
X218970Y435210D01*
X219332Y435330D01*
X219691Y435460D01*
X220046Y435598D01*
X220398Y435744D01*
X220747Y435899D01*
X221091Y436062D01*
X221432Y436233D01*
X221768Y436413D01*
X222100Y436601D01*
X222427Y436796D01*
X222750Y437000D01*
X222873Y436861D01*
X222999Y436725D01*
X223128Y436592D01*
X223260Y436462D01*
X223396Y436335D01*
X223534Y436212D01*
X223676Y436092D01*
X223820Y435975D01*
X223967Y435861D01*
X224116Y435752D01*
X224268Y435646D01*
X224423Y435543D01*
X224580Y435444D01*
X224739Y435349D01*
X224901Y435258D01*
X225065Y435171D01*
X225230Y435087D01*
X225398Y435008D01*
X225568Y434932D01*
X225739Y434861D01*
X225912Y434794D01*
X226086Y434731D01*
X226262Y434672D01*
X226440Y434617D01*
X226618Y434567D01*
X226798Y434520D01*
X226978Y434479D01*
X227160Y434441D01*
X227343Y434408D01*
X227526Y434379D01*
X227710Y434354D01*
X227894Y434334D01*
X228079Y434319D01*
X228264Y434307D01*
X228450Y434300D01*
X244650Y434300D01*
X244843Y434306D01*
X245035Y434316D01*
X245227Y434331D01*
X245419Y434350D01*
X245610Y434375D01*
X245801Y434404D01*
X245991Y434437D01*
X246180Y434475D01*
X246367Y434518D01*
X246554Y434566D01*
X246740Y434618D01*
X246924Y434674D01*
X247107Y434735D01*
X247288Y434800D01*
X247468Y434870D01*
X247646Y434944D01*
X247822Y435023D01*
X247996Y435106D01*
X248168Y435193D01*
X248338Y435284D01*
X248505Y435379D01*
X248670Y435478D01*
X248833Y435582D01*
X248993Y435689D01*
X249150Y435800D01*
X249149Y435799D02*
X249554Y435596D01*
X249963Y435403D01*
X250377Y435220D01*
X250795Y435047D01*
X251217Y434884D01*
X251642Y434731D01*
X252072Y434588D01*
X252504Y434456D01*
X252940Y434334D01*
X253378Y434223D01*
X253819Y434122D01*
X254263Y434032D01*
X254708Y433952D01*
X255155Y433883D01*
X255604Y433825D01*
X256054Y433778D01*
X256505Y433741D01*
X256956Y433716D01*
X257409Y433701D01*
X257861Y433697D01*
X258313Y433704D01*
X258765Y433722D01*
X259217Y433751D01*
X259668Y433790D01*
X260117Y433840D01*
X260566Y433902D01*
X261012Y433973D01*
X261457Y434056D01*
X261900Y434149D01*
X222450Y445400D02*
X217800Y445400D01*
X217649Y445402D01*
X217499Y445408D01*
X217349Y445417D01*
X217198Y445431D01*
X217049Y445448D01*
X216900Y445470D01*
X216751Y445495D01*
X216603Y445524D01*
X216456Y445556D01*
X216310Y445593D01*
X216165Y445633D01*
X216021Y445677D01*
X215878Y445725D01*
X215736Y445776D01*
X215596Y445831D01*
X215457Y445890D01*
X215320Y445952D01*
X215185Y446017D01*
X215051Y446086D01*
X214919Y446159D01*
X214788Y446235D01*
X214660Y446314D01*
X214534Y446396D01*
X214410Y446482D01*
X214289Y446571D01*
X214169Y446663D01*
X214053Y446758D01*
X213938Y446856D01*
X213826Y446957D01*
X213717Y447061D01*
X213611Y447167D01*
X213507Y447276D01*
X213406Y447388D01*
X213308Y447503D01*
X213213Y447619D01*
X213121Y447739D01*
X213032Y447860D01*
X212946Y447984D01*
X212864Y448110D01*
X212785Y448238D01*
X212709Y448369D01*
X212636Y448501D01*
X212567Y448635D01*
X212502Y448770D01*
X212440Y448907D01*
X212381Y449046D01*
X212326Y449186D01*
X212275Y449328D01*
X212227Y449471D01*
X212183Y449615D01*
X212143Y449760D01*
X212106Y449906D01*
X212074Y450053D01*
X212045Y450201D01*
X212020Y450350D01*
X211998Y450499D01*
X211981Y450648D01*
X211967Y450799D01*
X211958Y450949D01*
X211952Y451099D01*
X211950Y451250D01*
X222450Y451400D02*
X222488Y449400D01*
X222488Y447400D01*
X222450Y445400D01*
X215100Y442550D02*
X215059Y442407D01*
X215015Y442265D01*
X214967Y442124D01*
X214915Y441985D01*
X214859Y441847D01*
X214800Y441710D01*
X214738Y441575D01*
X214671Y441442D01*
X214602Y441311D01*
X214528Y441181D01*
X214452Y441054D01*
X214372Y440928D01*
X214289Y440805D01*
X214202Y440684D01*
X214113Y440565D01*
X214020Y440448D01*
X213925Y440334D01*
X213826Y440223D01*
X213724Y440114D01*
X213620Y440008D01*
X213513Y439905D01*
X213403Y439805D01*
X213290Y439707D01*
X213175Y439613D01*
X213058Y439521D01*
X212938Y439433D01*
X212816Y439348D01*
X212692Y439266D01*
X212565Y439188D01*
X212437Y439113D01*
X212307Y439041D01*
X212174Y438973D01*
X212040Y438908D01*
X211905Y438847D01*
X211768Y438789D01*
X211629Y438735D01*
X211489Y438685D01*
X211348Y438638D01*
X211205Y438595D01*
X211062Y438556D01*
X210917Y438521D01*
X210772Y438489D01*
X210625Y438462D01*
X210479Y438438D01*
X210331Y438418D01*
X210183Y438402D01*
X210035Y438390D01*
X209886Y438382D01*
X209738Y438378D01*
X209589Y438377D01*
X209440Y438381D01*
X209291Y438388D01*
X209143Y438400D01*
X208995Y438415D01*
X208847Y438434D01*
X208700Y438458D01*
X208554Y438485D01*
X208409Y438515D01*
X208264Y438550D01*
X208120Y438589D01*
X207977Y438631D01*
X207836Y438677D01*
X207696Y438727D01*
X207557Y438780D01*
X207419Y438837D01*
X207283Y438898D01*
X207149Y438962D01*
X207017Y439029D01*
X206886Y439101D01*
X206757Y439175D01*
X206631Y439253D01*
X206506Y439334D01*
X206383Y439419D01*
X206263Y439507D01*
X206145Y439598D01*
X206030Y439692D01*
X205917Y439789D01*
X205807Y439888D01*
X205699Y439991D01*
X205594Y440097D01*
X205492Y440205D01*
X205393Y440316D01*
X205297Y440430D01*
X205204Y440546D01*
X205114Y440664D01*
X205027Y440785D01*
X204943Y440908D01*
X204863Y441033D01*
X204786Y441160D01*
X204712Y441290D01*
X204642Y441421D01*
X204575Y441554D01*
X204512Y441688D01*
X204452Y441825D01*
X204396Y441962D01*
X204343Y442102D01*
X204295Y442242D01*
X204250Y442384D01*
X204208Y442527D01*
X204171Y442671D01*
X204137Y442816D01*
X204107Y442962D01*
X204081Y443108D01*
X204059Y443255D01*
X204041Y443403D01*
X204027Y443551D01*
X204016Y443700D01*
X204010Y443848D01*
X204007Y443997D01*
X204008Y444146D01*
X204014Y444294D01*
X204023Y444443D01*
X204036Y444591D01*
X204053Y444739D01*
X204074Y444886D01*
X204098Y445033D01*
X204127Y445179D01*
X204160Y445324D01*
X204196Y445469D01*
X204236Y445612D01*
X204280Y445754D01*
X204327Y445895D01*
X204379Y446035D01*
X204433Y446173D01*
X204492Y446310D01*
X204554Y446445D01*
X204620Y446579D01*
X204689Y446710D01*
X204762Y446840D01*
X204838Y446968D01*
X204917Y447094D01*
X205000Y447218D01*
X205085Y447339D01*
X205175Y447458D01*
X205267Y447575D01*
X205362Y447690D01*
X205460Y447801D01*
X205561Y447911D01*
X205665Y448017D01*
X205772Y448121D01*
X205881Y448222D01*
X205993Y448319D01*
X206108Y448414D01*
X206225Y448506D01*
X206344Y448595D01*
X206466Y448681D01*
X206590Y448763D01*
X206716Y448842D01*
X206844Y448918D01*
X206974Y448990D01*
X207106Y449059D01*
X207240Y449124D01*
X207375Y449186D01*
X207512Y449244D01*
X207651Y449299D01*
X207791Y449350D01*
X207932Y449397D01*
X208074Y449440D01*
X208217Y449480D01*
X208362Y449516D01*
X208507Y449548D01*
X208653Y449576D01*
X208800Y449600D01*
X208829Y449397D01*
X208863Y449195D01*
X208902Y448994D01*
X208945Y448793D01*
X208994Y448594D01*
X209047Y448396D01*
X209106Y448200D01*
X209169Y448005D01*
X209237Y447811D01*
X209309Y447619D01*
X209387Y447430D01*
X209469Y447242D01*
X209555Y447056D01*
X209646Y446872D01*
X209742Y446691D01*
X209841Y446511D01*
X209946Y446335D01*
X210054Y446161D01*
X210167Y445990D01*
X210284Y445821D01*
X210405Y445656D01*
X210530Y445493D01*
X210659Y445334D01*
X210792Y445178D01*
X210928Y445025D01*
X211069Y444875D01*
X211213Y444729D01*
X211360Y444587D01*
X211511Y444448D01*
X211665Y444313D01*
X211823Y444182D01*
X211984Y444054D01*
X212147Y443931D01*
X212314Y443812D01*
X212484Y443696D01*
X212656Y443585D01*
X212831Y443479D01*
X213009Y443376D01*
X213189Y443278D01*
X213371Y443185D01*
X213556Y443095D01*
X213743Y443011D01*
X213931Y442931D01*
X214122Y442856D01*
X214315Y442785D01*
X214509Y442719D01*
X214705Y442658D01*
X214902Y442602D01*
X215100Y442550D01*
M02*
