M48
;GenerationSoftware,Autodesk,EAGLE,9.2.2*%
;CreationDate,2018-12-25T05:50:55Z*%
FMAT,2
ICI,OFF
METRIC,TZ,000.000
T11C0.350
T10C0.786
T9C0.813
T8C1.000
T7C1.016
T6C1.600
T5C2.200
T4C2.400
T3C2.800
T2C2.997
T1C5.000
%
G90
M71
T1
X11430Y30480
X35560Y30480
X64770Y30480
X88900Y30480
T2
X12000Y86300
X12000Y92300
X7300Y89300
T3
X76500Y96000
X4000Y96000
X4000Y80000
X96000Y66000
X23495Y18340
X32702Y53340
X67628Y53340
T4
X50165Y27250
X50165Y19750
X50165Y41250
X50165Y33750
T5
X97500Y85508
X56500Y85508
T6
X64770Y21480
X5680Y25980
X70520Y34980
X70520Y30480
X64770Y39480
X31560Y22480
X29810Y25980
X29810Y30480
X83150Y30480
X83150Y25980
X84900Y22480
X29810Y34980
X83150Y34980
X84900Y38480
X92900Y38480
X92900Y22480
X94650Y25980
X88900Y21480
X94650Y34980
X94650Y30480
X88900Y39480
X60770Y22480
X59020Y25980
X59020Y30480
X59020Y34980
X60770Y38480
X68770Y38480
X68770Y22480
X31560Y38480
X17180Y30480
X17180Y34980
X11430Y21480
X17180Y25980
X15430Y22480
X15430Y38480
X7430Y38480
X5680Y34980
X5680Y30480
X39560Y38480
X7430Y22480
X39560Y22480
X70520Y25980
X41310Y25980
X35560Y21480
X41310Y34980
X41310Y30480
X35560Y39480
X11430Y39480
T7
X29408Y80321
X29408Y82861
X29408Y85401
X29408Y87941
X29408Y90481
X24765Y8255
X22225Y8255
X29408Y77781
X16510Y8255
X13970Y8255
X11430Y8255
X8890Y8255
X29408Y75241
X29408Y72701
X52268Y90481
X52268Y87941
X52268Y85401
X52268Y80321
X52268Y75241
X52268Y77781
X6350Y8255
X52268Y72701
X52268Y82861
T8
X89000Y92168
X89000Y94708
X64500Y90178
X64500Y92718
X64500Y95258
T9
X6350Y70810
X85090Y13970
X74930Y13970
X51435Y13970
X61595Y13970
X38735Y13970
X48895Y13970
X24765Y13970
X14605Y13970
X69215Y2540
X69215Y12700
X66040Y2540
X66040Y12700
X34290Y2540
X34290Y12700
X31242Y2540
X31242Y12700
X24765Y70810
X22225Y70810
X16510Y70810
X13970Y70810
X11430Y70810
X8890Y70810
X38800Y46990
X48960Y46990
X60895Y46990
X50735Y46990
T10
X21590Y3810
X24130Y3810
X26670Y3810
X26670Y11430
X24130Y11430
X21590Y11430
X19050Y11430
X16510Y11430
X13970Y11430
X11430Y11430
X8890Y11430
X6350Y11430
X3810Y11430
X26670Y57150
X24130Y57150
X21590Y57150
X19050Y57150
X16510Y57150
X13970Y57150
X11430Y57150
X8890Y57150
X6350Y57150
X3810Y57150
X3810Y49530
X6350Y49530
X8890Y49530
X11430Y49530
X13970Y49530
X16510Y49530
X19050Y49530
X21590Y49530
X24130Y49530
X26670Y49530
X38735Y3810
X41275Y3810
X43815Y3810
X46355Y3810
X48895Y3810
X51435Y3810
X53975Y3810
X56515Y3810
X59055Y3810
X61595Y3810
X61595Y11430
X59055Y11430
X56515Y11430
X53975Y11430
X51435Y11430
X48895Y11430
X46355Y11430
X43815Y11430
X41275Y11430
X38735Y11430
X61595Y57150
X59055Y57150
X56515Y57150
X53975Y57150
X51435Y57150
X48895Y57150
X46355Y57150
X43815Y57150
X41275Y57150
X38735Y57150
X38735Y49530
X41275Y49530
X43815Y49530
X46355Y49530
X48895Y49530
X51435Y49530
X53975Y49530
X56515Y49530
X59055Y49530
X61595Y49530
X73660Y3810
X76200Y3810
X78740Y3810
X81280Y3810
X83820Y3810
X86360Y3810
X88900Y3810
X91440Y3810
X93980Y3810
X96520Y3810
X96520Y11430
X93980Y11430
X91440Y11430
X88900Y11430
X86360Y11430
X83820Y11430
X81280Y11430
X78740Y11430
X76200Y11430
X73660Y11430
X19050Y3810
X16510Y3810
X13970Y3810
X11430Y3810
X8890Y3810
X6350Y3810
X3810Y3810
X96520Y49530
X93980Y49530
X91440Y49530
X88900Y49530
X86360Y49530
X83820Y49530
X81280Y49530
X78740Y49530
X76200Y49530
X73660Y49530
X73660Y57150
X76200Y57150
X78740Y57150
X81280Y57150
X83820Y57150
X86360Y57150
X88900Y57150
X91440Y57150
X93980Y57150
X96520Y57150
T11
X20320Y3175
X30749Y5079
X24750Y5080
X61595Y6350
X35560Y5080
X29845Y58420
X27305Y58420
X71120Y58420
X68580Y58420
X32702Y1905
X29845Y1905
X69215Y15240
X66040Y15240
X29845Y48260
X33655Y48260
M30